<svg width="588" height="188" viewBox="0 0 588 188" fill="none" xmlns="http://www.w3.org/2000/svg">
<path d="M232.724 174.263V173.091H240.906V174.263H237.476V184H236.155V174.263H232.724ZM244.912 184.17C244.173 184.17 243.525 183.995 242.968 183.643C242.414 183.292 241.98 182.8 241.668 182.168C241.359 181.536 241.205 180.797 241.205 179.952C241.205 179.099 241.359 178.355 241.668 177.72C241.98 177.084 242.414 176.591 242.968 176.239C243.525 175.887 244.173 175.712 244.912 175.712C245.651 175.712 246.297 175.887 246.851 176.239C247.408 176.591 247.842 177.084 248.151 177.72C248.463 178.355 248.619 179.099 248.619 179.952C248.619 180.797 248.463 181.536 248.151 182.168C247.842 182.8 247.408 183.292 246.851 183.643C246.297 183.995 245.651 184.17 244.912 184.17ZM244.912 183.041C245.473 183.041 245.935 182.897 246.297 182.61C246.659 182.322 246.927 181.944 247.101 181.475C247.275 181.006 247.362 180.499 247.362 179.952C247.362 179.405 247.275 178.895 247.101 178.423C246.927 177.951 246.659 177.569 246.297 177.278C245.935 176.987 245.473 176.841 244.912 176.841C244.351 176.841 243.889 176.987 243.527 177.278C243.165 177.569 242.897 177.951 242.723 178.423C242.549 178.895 242.462 179.405 242.462 179.952C242.462 180.499 242.549 181.006 242.723 181.475C242.897 181.944 243.165 182.322 243.527 182.61C243.889 182.897 244.351 183.041 244.912 183.041ZM254.097 175.818V176.884H249.856V175.818H254.097ZM251.092 173.858H252.349V181.656C252.349 182.011 252.401 182.278 252.504 182.455C252.61 182.629 252.745 182.746 252.909 182.807C253.076 182.864 253.251 182.892 253.436 182.892C253.574 182.892 253.688 182.885 253.777 182.871C253.866 182.853 253.937 182.839 253.99 182.828L254.246 183.957C254.16 183.989 254.041 184.021 253.889 184.053C253.736 184.089 253.543 184.107 253.308 184.107C252.953 184.107 252.605 184.03 252.264 183.877C251.927 183.725 251.646 183.492 251.422 183.18C251.202 182.867 251.092 182.473 251.092 181.997V173.858ZM258.395 184.192C257.877 184.192 257.406 184.094 256.984 183.899C256.561 183.7 256.225 183.414 255.977 183.041C255.728 182.665 255.604 182.21 255.604 181.678C255.604 181.209 255.696 180.829 255.881 180.538C256.066 180.243 256.312 180.012 256.621 179.845C256.93 179.678 257.271 179.554 257.644 179.472C258.021 179.387 258.399 179.32 258.779 179.27C259.276 179.206 259.679 179.158 259.988 179.126C260.3 179.091 260.528 179.032 260.67 178.95C260.815 178.869 260.888 178.727 260.888 178.524V178.482C260.888 177.956 260.744 177.548 260.457 177.256C260.172 176.965 259.741 176.82 259.162 176.82C258.562 176.82 258.092 176.951 257.751 177.214C257.41 177.477 257.17 177.757 257.032 178.055L255.838 177.629C256.051 177.132 256.335 176.745 256.691 176.468C257.049 176.187 257.44 175.992 257.862 175.882C258.289 175.768 258.708 175.712 259.12 175.712C259.382 175.712 259.684 175.744 260.025 175.808C260.37 175.868 260.702 175.994 261.021 176.186C261.344 176.377 261.612 176.667 261.826 177.054C262.039 177.441 262.145 177.96 262.145 178.609V184H260.888V182.892H260.824C260.739 183.07 260.597 183.26 260.398 183.462C260.199 183.664 259.935 183.837 259.604 183.979C259.274 184.121 258.871 184.192 258.395 184.192ZM258.587 183.062C259.084 183.062 259.503 182.965 259.844 182.77C260.188 182.574 260.448 182.322 260.622 182.013C260.799 181.704 260.888 181.379 260.888 181.038V179.888C260.835 179.952 260.718 180.01 260.536 180.064C260.359 180.113 260.153 180.158 259.919 180.197C259.688 180.232 259.462 180.264 259.242 180.293C259.025 180.317 258.85 180.339 258.715 180.357C258.388 180.399 258.083 180.468 257.799 180.564C257.518 180.657 257.291 180.797 257.117 180.985C256.946 181.17 256.861 181.422 256.861 181.741C256.861 182.178 257.023 182.509 257.346 182.732C257.672 182.952 258.086 183.062 258.587 183.062ZM265.697 173.091V184H264.44V173.091H265.697ZM275.307 184.17C274.626 184.17 274.024 183.998 273.502 183.654C272.98 183.306 272.571 182.816 272.277 182.184C271.982 181.548 271.834 180.797 271.834 179.93C271.834 179.071 271.982 178.325 272.277 177.693C272.571 177.061 272.981 176.573 273.507 176.228C274.033 175.884 274.64 175.712 275.329 175.712C275.861 175.712 276.282 175.8 276.591 175.978C276.904 176.152 277.142 176.351 277.305 176.575C277.472 176.795 277.601 176.976 277.694 177.118H277.8V173.091H279.057V184H277.843V182.743H277.694C277.601 182.892 277.47 183.08 277.3 183.308C277.129 183.531 276.886 183.732 276.57 183.909C276.254 184.083 275.833 184.17 275.307 184.17ZM275.478 183.041C275.982 183.041 276.408 182.91 276.756 182.647C277.104 182.381 277.369 182.013 277.55 181.544C277.731 181.072 277.822 180.527 277.822 179.909C277.822 179.298 277.733 178.764 277.555 178.306C277.378 177.844 277.115 177.485 276.767 177.23C276.419 176.971 275.989 176.841 275.478 176.841C274.945 176.841 274.501 176.978 274.146 177.251C273.795 177.521 273.53 177.888 273.353 178.354C273.179 178.815 273.092 179.334 273.092 179.909C273.092 180.491 273.18 181.021 273.358 181.496C273.539 181.969 273.805 182.345 274.157 182.626C274.512 182.903 274.952 183.041 275.478 183.041ZM284.965 184.17C284.176 184.17 283.496 183.996 282.925 183.648C282.356 183.297 281.918 182.807 281.609 182.178C281.304 181.546 281.151 180.811 281.151 179.973C281.151 179.135 281.304 178.396 281.609 177.757C281.918 177.114 282.348 176.614 282.898 176.255C283.452 175.893 284.098 175.712 284.837 175.712C285.263 175.712 285.684 175.783 286.099 175.925C286.515 176.067 286.893 176.298 287.234 176.617C287.575 176.933 287.847 177.352 288.049 177.874C288.251 178.396 288.353 179.039 288.353 179.803V180.335H282.046V179.249H287.074C287.074 178.787 286.982 178.375 286.797 178.013C286.616 177.651 286.357 177.365 286.019 177.155C285.686 176.946 285.291 176.841 284.837 176.841C284.336 176.841 283.903 176.965 283.537 177.214C283.175 177.459 282.896 177.778 282.701 178.173C282.506 178.567 282.408 178.989 282.408 179.44V180.165C282.408 180.783 282.514 181.306 282.728 181.736C282.944 182.162 283.244 182.487 283.628 182.711C284.011 182.931 284.457 183.041 284.965 183.041C285.295 183.041 285.593 182.995 285.86 182.903C286.13 182.807 286.362 182.665 286.557 182.477C286.753 182.285 286.904 182.047 287.01 181.763L288.225 182.104C288.097 182.516 287.882 182.878 287.58 183.19C287.278 183.499 286.905 183.741 286.462 183.915C286.018 184.085 285.519 184.17 284.965 184.17ZM294.484 184V175.818H295.698V177.097H295.805C295.975 176.66 296.25 176.321 296.63 176.079C297.01 175.834 297.467 175.712 297.999 175.712C298.539 175.712 298.988 175.834 299.347 176.079C299.709 176.321 299.991 176.66 300.194 177.097H300.279C300.489 176.674 300.803 176.338 301.222 176.09C301.641 175.838 302.143 175.712 302.729 175.712C303.461 175.712 304.059 175.941 304.524 176.399C304.99 176.853 305.222 177.562 305.222 178.524V184H303.965V178.524C303.965 177.92 303.8 177.489 303.47 177.23C303.139 176.971 302.751 176.841 302.303 176.841C301.728 176.841 301.282 177.015 300.966 177.363C300.65 177.707 300.492 178.144 300.492 178.673V184H299.214V178.396C299.214 177.931 299.063 177.556 298.761 177.272C298.459 176.985 298.07 176.841 297.594 176.841C297.268 176.841 296.962 176.928 296.678 177.102C296.398 177.276 296.17 177.517 295.996 177.826C295.826 178.132 295.741 178.485 295.741 178.886V184H294.484ZM310.951 184.17C310.163 184.17 309.483 183.996 308.911 183.648C308.343 183.297 307.904 182.807 307.595 182.178C307.29 181.546 307.137 180.811 307.137 179.973C307.137 179.135 307.29 178.396 307.595 177.757C307.904 177.114 308.334 176.614 308.884 176.255C309.438 175.893 310.085 175.712 310.823 175.712C311.249 175.712 311.67 175.783 312.086 175.925C312.501 176.067 312.879 176.298 313.22 176.617C313.561 176.933 313.833 177.352 314.035 177.874C314.238 178.396 314.339 179.039 314.339 179.803V180.335H308.032V179.249H313.06C313.06 178.787 312.968 178.375 312.783 178.013C312.602 177.651 312.343 177.365 312.006 177.155C311.672 176.946 311.278 176.841 310.823 176.841C310.323 176.841 309.889 176.965 309.524 177.214C309.161 177.459 308.883 177.778 308.687 178.173C308.492 178.567 308.394 178.989 308.394 179.44V180.165C308.394 180.783 308.501 181.306 308.714 181.736C308.93 182.162 309.231 182.487 309.614 182.711C309.998 182.931 310.443 183.041 310.951 183.041C311.281 183.041 311.58 182.995 311.846 182.903C312.116 182.807 312.348 182.665 312.544 182.477C312.739 182.285 312.89 182.047 312.997 181.763L314.211 182.104C314.083 182.516 313.868 182.878 313.566 183.19C313.265 183.499 312.892 183.741 312.448 183.915C312.004 184.085 311.505 184.17 310.951 184.17ZM319.341 184.17C318.659 184.17 318.057 183.998 317.535 183.654C317.013 183.306 316.604 182.816 316.31 182.184C316.015 181.548 315.868 180.797 315.868 179.93C315.868 179.071 316.015 178.325 316.31 177.693C316.604 177.061 317.015 176.573 317.54 176.228C318.066 175.884 318.673 175.712 319.362 175.712C319.895 175.712 320.315 175.8 320.624 175.978C320.937 176.152 321.175 176.351 321.338 176.575C321.505 176.795 321.635 176.976 321.727 177.118H321.834V173.091H323.091V184H321.876V182.743H321.727C321.635 182.892 321.503 183.08 321.333 183.308C321.162 183.531 320.919 183.732 320.603 183.909C320.287 184.083 319.866 184.17 319.341 184.17ZM319.511 183.041C320.015 183.041 320.441 182.91 320.79 182.647C321.138 182.381 321.402 182.013 321.583 181.544C321.764 181.072 321.855 180.527 321.855 179.909C321.855 179.298 321.766 178.764 321.589 178.306C321.411 177.844 321.148 177.485 320.8 177.23C320.452 176.971 320.022 176.841 319.511 176.841C318.978 176.841 318.535 176.978 318.179 177.251C317.828 177.521 317.563 177.888 317.386 178.354C317.212 178.815 317.125 179.334 317.125 179.909C317.125 180.491 317.214 181.021 317.391 181.496C317.572 181.969 317.839 182.345 318.19 182.626C318.545 182.903 318.986 183.041 319.511 183.041ZM327.975 184.192C327.457 184.192 326.986 184.094 326.564 183.899C326.141 183.7 325.805 183.414 325.557 183.041C325.308 182.665 325.184 182.21 325.184 181.678C325.184 181.209 325.276 180.829 325.461 180.538C325.646 180.243 325.892 180.012 326.201 179.845C326.51 179.678 326.851 179.554 327.224 179.472C327.601 179.387 327.979 179.32 328.359 179.27C328.856 179.206 329.259 179.158 329.568 179.126C329.88 179.091 330.108 179.032 330.25 178.95C330.395 178.869 330.468 178.727 330.468 178.524V178.482C330.468 177.956 330.324 177.548 330.037 177.256C329.753 176.965 329.321 176.82 328.742 176.82C328.142 176.82 327.672 176.951 327.331 177.214C326.99 177.477 326.75 177.757 326.612 178.055L325.418 177.629C325.631 177.132 325.916 176.745 326.271 176.468C326.629 176.187 327.02 175.992 327.443 175.882C327.869 175.768 328.288 175.712 328.7 175.712C328.962 175.712 329.264 175.744 329.605 175.808C329.95 175.868 330.282 175.994 330.601 176.186C330.924 176.377 331.193 176.667 331.406 177.054C331.619 177.441 331.725 177.96 331.725 178.609V184H330.468V182.892H330.404C330.319 183.07 330.177 183.26 329.978 183.462C329.779 183.664 329.515 183.837 329.184 183.979C328.854 184.121 328.451 184.192 327.975 184.192ZM328.167 183.062C328.664 183.062 329.083 182.965 329.424 182.77C329.769 182.574 330.028 182.322 330.202 182.013C330.379 181.704 330.468 181.379 330.468 181.038V179.888C330.415 179.952 330.298 180.01 330.117 180.064C329.939 180.113 329.733 180.158 329.499 180.197C329.268 180.232 329.042 180.264 328.822 180.293C328.606 180.317 328.43 180.339 328.295 180.357C327.968 180.399 327.663 180.468 327.379 180.564C327.098 180.657 326.871 180.797 326.697 180.985C326.526 181.17 326.441 181.422 326.441 181.741C326.441 182.178 326.603 182.509 326.926 182.732C327.253 182.952 327.666 183.062 328.167 183.062ZM335.277 173.091V184H334.02V173.091H335.277ZM338.836 173.091V184H337.579V173.091H338.836ZM343.547 184.192C343.028 184.192 342.558 184.094 342.135 183.899C341.712 183.7 341.377 183.414 341.128 183.041C340.88 182.665 340.755 182.21 340.755 181.678C340.755 181.209 340.848 180.829 341.032 180.538C341.217 180.243 341.464 180.012 341.773 179.845C342.082 179.678 342.423 179.554 342.795 179.472C343.172 179.387 343.55 179.32 343.93 179.27C344.427 179.206 344.83 179.158 345.139 179.126C345.452 179.091 345.679 179.032 345.821 178.95C345.967 178.869 346.039 178.727 346.039 178.524V178.482C346.039 177.956 345.896 177.548 345.608 177.256C345.324 176.965 344.892 176.82 344.314 176.82C343.713 176.82 343.243 176.951 342.902 177.214C342.561 177.477 342.321 177.757 342.183 178.055L340.99 177.629C341.203 177.132 341.487 176.745 341.842 176.468C342.201 176.187 342.591 175.992 343.014 175.882C343.44 175.768 343.859 175.712 344.271 175.712C344.534 175.712 344.836 175.744 345.176 175.808C345.521 175.868 345.853 175.994 346.173 176.186C346.496 176.377 346.764 176.667 346.977 177.054C347.19 177.441 347.297 177.96 347.297 178.609V184H346.039V182.892H345.975C345.89 183.07 345.748 183.26 345.549 183.462C345.35 183.664 345.086 183.837 344.756 183.979C344.425 184.121 344.022 184.192 343.547 184.192ZM343.738 183.062C344.235 183.062 344.654 182.965 344.995 182.77C345.34 182.574 345.599 182.322 345.773 182.013C345.951 181.704 346.039 181.379 346.039 181.038V179.888C345.986 179.952 345.869 180.01 345.688 180.064C345.51 180.113 345.304 180.158 345.07 180.197C344.839 180.232 344.614 180.264 344.393 180.293C344.177 180.317 344.001 180.339 343.866 180.357C343.539 180.399 343.234 180.468 342.95 180.564C342.669 180.657 342.442 180.797 342.268 180.985C342.098 181.17 342.012 181.422 342.012 181.741C342.012 182.178 342.174 182.509 342.497 182.732C342.824 182.952 343.238 183.062 343.738 183.062ZM355.386 177.651L354.257 177.97C354.186 177.782 354.081 177.599 353.943 177.422C353.808 177.24 353.623 177.091 353.389 176.974C353.155 176.857 352.854 176.798 352.489 176.798C351.988 176.798 351.571 176.914 351.237 177.145C350.907 177.372 350.742 177.661 350.742 178.013C350.742 178.325 350.855 178.572 351.082 178.753C351.31 178.934 351.665 179.085 352.148 179.206L353.362 179.504C354.094 179.682 354.639 179.953 354.998 180.319C355.356 180.681 355.536 181.148 355.536 181.72C355.536 182.189 355.401 182.608 355.131 182.977C354.864 183.347 354.492 183.638 354.012 183.851C353.533 184.064 352.975 184.17 352.34 184.17C351.505 184.17 350.814 183.989 350.267 183.627C349.721 183.265 349.374 182.736 349.229 182.04L350.422 181.741C350.536 182.182 350.75 182.512 351.066 182.732C351.386 182.952 351.803 183.062 352.318 183.062C352.904 183.062 353.369 182.938 353.714 182.69C354.062 182.437 354.236 182.136 354.236 181.784C354.236 181.5 354.136 181.262 353.938 181.07C353.739 180.875 353.433 180.729 353.021 180.634L351.658 180.314C350.908 180.136 350.358 179.861 350.006 179.488C349.658 179.112 349.484 178.641 349.484 178.077C349.484 177.615 349.614 177.207 349.873 176.852C350.136 176.496 350.493 176.218 350.944 176.015C351.399 175.813 351.913 175.712 352.489 175.712C353.298 175.712 353.934 175.889 354.396 176.244C354.861 176.599 355.191 177.068 355.386 177.651Z" fill="black"/>
<path d="M286.129 14V13.0412L289.73 9.09943C290.153 8.63778 290.501 8.23651 290.774 7.8956C291.048 7.55114 291.25 7.22798 291.381 6.92614C291.516 6.62074 291.584 6.30114 291.584 5.96733C291.584 5.58381 291.491 5.25178 291.307 4.97124C291.126 4.6907 290.877 4.47408 290.561 4.32138C290.245 4.16868 289.89 4.09233 289.496 4.09233C289.077 4.09233 288.711 4.17933 288.398 4.35334C288.089 4.52379 287.85 4.76349 287.679 5.07244C287.512 5.38139 287.429 5.74361 287.429 6.15909H286.172C286.172 5.51989 286.319 4.95881 286.614 4.47585C286.909 3.9929 287.31 3.61648 287.818 3.34659C288.329 3.0767 288.903 2.94176 289.538 2.94176C290.178 2.94176 290.744 3.0767 291.238 3.34659C291.731 3.61648 292.118 3.98047 292.399 4.43857C292.679 4.89666 292.82 5.40625 292.82 5.96733C292.82 6.36861 292.747 6.76101 292.601 7.14453C292.459 7.5245 292.211 7.94886 291.855 8.41761C291.504 8.88281 291.016 9.45099 290.391 10.1222L287.94 12.7429V12.8281H293.011V14H286.129ZM298.706 14.1491C297.974 14.1491 297.328 14.0195 296.767 13.7603C296.209 13.4975 295.774 13.1371 295.462 12.679C295.149 12.2173 294.995 11.6918 294.998 11.1023C294.995 10.6406 295.085 10.2145 295.27 9.82386C295.455 9.42969 295.707 9.10121 296.026 8.83842C296.349 8.57209 296.71 8.40341 297.108 8.33239V8.26847C296.586 8.13352 296.17 7.84055 295.861 7.38956C295.552 6.93501 295.4 6.41832 295.403 5.83949C295.4 5.28551 295.54 4.79013 295.824 4.35334C296.108 3.91655 296.499 3.57209 296.996 3.31996C297.496 3.06783 298.066 2.94176 298.706 2.94176C299.338 2.94176 299.902 3.06783 300.4 3.31996C300.897 3.57209 301.287 3.91655 301.571 4.35334C301.859 4.79013 302.005 5.28551 302.008 5.83949C302.005 6.41832 301.847 6.93501 301.534 7.38956C301.225 7.84055 300.815 8.13352 300.304 8.26847V8.33239C300.698 8.40341 301.053 8.57209 301.369 8.83842C301.685 9.10121 301.937 9.42969 302.125 9.82386C302.314 10.2145 302.409 10.6406 302.413 11.1023C302.409 11.6918 302.25 12.2173 301.934 12.679C301.621 13.1371 301.186 13.4975 300.629 13.7603C300.075 14.0195 299.434 14.1491 298.706 14.1491ZM298.706 12.9773C299.199 12.9773 299.625 12.8974 299.984 12.7376C300.343 12.5778 300.62 12.3523 300.815 12.0611C301.01 11.7699 301.11 11.429 301.113 11.0384C301.11 10.6264 301.003 10.2624 300.794 9.94638C300.584 9.63033 300.298 9.38175 299.936 9.20064C299.577 9.01953 299.167 8.92898 298.706 8.92898C298.24 8.92898 297.825 9.01953 297.459 9.20064C297.097 9.38175 296.811 9.63033 296.602 9.94638C296.396 10.2624 296.294 10.6264 296.298 11.0384C296.294 11.429 296.388 11.7699 296.58 12.0611C296.776 12.3523 297.054 12.5778 297.417 12.7376C297.779 12.8974 298.208 12.9773 298.706 12.9773ZM298.706 7.79972C299.096 7.79972 299.442 7.72159 299.744 7.56534C300.05 7.40909 300.289 7.1907 300.463 6.91016C300.637 6.62962 300.726 6.30114 300.73 5.92472C300.726 5.5554 300.639 5.23402 300.469 4.96058C300.298 4.68359 300.062 4.47053 299.76 4.32138C299.458 4.16868 299.107 4.09233 298.706 4.09233C298.297 4.09233 297.94 4.16868 297.635 4.32138C297.33 4.47053 297.093 4.68359 296.926 4.96058C296.76 5.23402 296.678 5.5554 296.681 5.92472C296.678 6.30114 296.761 6.62962 296.932 6.91016C297.106 7.1907 297.346 7.40909 297.651 7.56534C297.956 7.72159 298.308 7.79972 298.706 7.79972Z" fill="black"/>
<path d="M293.751 80.1491C293.304 80.142 292.857 80.0568 292.409 79.8935C291.962 79.7301 291.553 79.4549 291.184 79.0678C290.815 78.6772 290.518 78.1499 290.294 77.4858C290.071 76.8182 289.959 75.9801 289.959 74.9716C289.959 74.0057 290.049 73.1499 290.23 72.4041C290.412 71.6548 290.674 71.0245 291.019 70.5131C291.363 69.9982 291.779 69.6076 292.265 69.3413C292.755 69.0749 293.308 68.9418 293.922 68.9418C294.533 68.9418 295.076 69.0643 295.552 69.3093C296.031 69.5508 296.422 69.8881 296.724 70.3214C297.026 70.7546 297.221 71.2536 297.31 71.8182H296.01C295.889 71.3281 295.655 70.9215 295.307 70.5984C294.959 70.2752 294.497 70.1136 293.922 70.1136C293.077 70.1136 292.411 70.4812 291.924 71.2163C291.441 71.9513 291.198 72.983 291.195 74.3111H291.28C291.479 74.0092 291.715 73.7518 291.988 73.5387C292.265 73.3221 292.571 73.1552 292.904 73.038C293.238 72.9208 293.592 72.8622 293.964 72.8622C294.589 72.8622 295.161 73.0185 295.68 73.331C296.198 73.6399 296.614 74.0678 296.926 74.6147C297.239 75.158 297.395 75.7812 297.395 76.4844C297.395 77.1591 297.244 77.777 296.942 78.3381C296.64 78.8956 296.216 79.3395 295.669 79.6697C295.126 79.9964 294.487 80.1562 293.751 80.1491ZM293.751 78.9773C294.199 78.9773 294.6 78.8654 294.955 78.6417C295.314 78.418 295.596 78.1179 295.802 77.7415C296.012 77.3651 296.116 76.946 296.116 76.4844C296.116 76.0334 296.015 75.6232 295.813 75.2539C295.614 74.881 295.339 74.5845 294.987 74.3643C294.639 74.1442 294.241 74.0341 293.794 74.0341C293.457 74.0341 293.142 74.1016 292.851 74.2365C292.56 74.3679 292.304 74.549 292.084 74.7798C291.868 75.0107 291.697 75.2752 291.573 75.5735C291.449 75.8683 291.386 76.179 291.386 76.5057C291.386 76.9389 291.488 77.3437 291.69 77.7202C291.896 78.0966 292.176 78.4002 292.532 78.631C292.89 78.8619 293.297 78.9773 293.751 78.9773Z" fill="black"/>
<circle cx="294" cy="85" r="61.5" stroke="black"/>
<circle cx="293.52" cy="118.52" r="28.02" stroke="black"/>
<path d="M11.321 184V173.091H15.0071C15.8629 173.091 16.5625 173.245 17.1058 173.554C17.6527 173.86 18.0575 174.273 18.3203 174.795C18.5831 175.317 18.7145 175.9 18.7145 176.543C18.7145 177.185 18.5831 177.77 18.3203 178.295C18.0611 178.821 17.6598 179.24 17.1165 179.552C16.5732 179.861 15.8771 180.016 15.0284 180.016H12.3864V178.844H14.9858C15.5717 178.844 16.0423 178.743 16.3974 178.54C16.7525 178.338 17.0099 178.064 17.1697 177.72C17.3331 177.372 17.4148 176.979 17.4148 176.543C17.4148 176.106 17.3331 175.715 17.1697 175.371C17.0099 175.026 16.7507 174.756 16.392 174.561C16.0334 174.362 15.5575 174.263 14.9645 174.263H12.642V184H11.321ZM23.0797 184.192C22.5613 184.192 22.0907 184.094 21.6681 183.899C21.2456 183.7 20.91 183.414 20.6614 183.041C20.4128 182.665 20.2885 182.21 20.2885 181.678C20.2885 181.209 20.3809 180.829 20.5655 180.538C20.7502 180.243 20.997 180.012 21.3059 179.845C21.6149 179.678 21.9558 179.554 22.3287 179.472C22.7051 179.387 23.0833 179.32 23.4632 179.27C23.9604 179.206 24.3635 179.158 24.6724 179.126C24.9849 179.091 25.2122 179.032 25.3542 178.95C25.4998 178.869 25.5726 178.727 25.5726 178.524V178.482C25.5726 177.956 25.4288 177.548 25.1412 177.256C24.8571 176.965 24.4256 176.82 23.8468 176.82C23.2466 176.82 22.7761 176.951 22.4352 177.214C22.0943 177.477 21.8546 177.757 21.7161 178.055L20.5229 177.629C20.736 177.132 21.0201 176.745 21.3752 176.468C21.7338 176.187 22.1245 175.992 22.5471 175.882C22.9732 175.768 23.3922 175.712 23.8042 175.712C24.0669 175.712 24.3688 175.744 24.7097 175.808C25.0542 175.868 25.3862 175.994 25.7058 176.186C26.0289 176.377 26.2971 176.667 26.5101 177.054C26.7232 177.441 26.8297 177.96 26.8297 178.609V184H25.5726V182.892H25.5087C25.4235 183.07 25.2814 183.26 25.0826 183.462C24.8837 183.664 24.6191 183.837 24.2889 183.979C23.9586 184.121 23.5556 184.192 23.0797 184.192ZM23.2715 183.062C23.7686 183.062 24.1877 182.965 24.5286 182.77C24.873 182.574 25.1323 182.322 25.3063 182.013C25.4838 181.704 25.5726 181.379 25.5726 181.038V179.888C25.5194 179.952 25.4022 180.01 25.2211 180.064C25.0435 180.113 24.8375 180.158 24.6032 180.197C24.3723 180.232 24.1468 180.264 23.9267 180.293C23.71 180.317 23.5343 180.339 23.3993 180.357C23.0726 180.399 22.7672 180.468 22.4831 180.564C22.2026 180.657 21.9753 180.797 21.8013 180.985C21.6309 181.17 21.5456 181.422 21.5456 181.741C21.5456 182.178 21.7072 182.509 22.0304 182.732C22.3571 182.952 22.7708 183.062 23.2715 183.062ZM29.1242 184V175.818H30.3387V177.054H30.4239C30.5731 176.649 30.843 176.321 31.2336 176.069C31.6242 175.816 32.0645 175.69 32.5546 175.69C32.6469 175.69 32.7623 175.692 32.9008 175.696C33.0393 175.699 33.1441 175.705 33.2151 175.712V176.99C33.1725 176.979 33.0748 176.963 32.9221 176.942C32.773 176.917 32.615 176.905 32.4481 176.905C32.0503 176.905 31.6952 176.988 31.3827 177.155C31.0738 177.319 30.8287 177.546 30.6476 177.837C30.4701 178.125 30.3813 178.453 30.3813 178.822V184H29.1242ZM38.7762 175.818V176.884H34.5361V175.818H38.7762ZM35.7719 173.858H37.029V181.656C37.029 182.011 37.0805 182.278 37.1835 182.455C37.29 182.629 37.425 182.746 37.5883 182.807C37.7552 182.864 37.931 182.892 38.1157 182.892C38.2542 182.892 38.3678 182.885 38.4566 182.871C38.5454 182.853 38.6164 182.839 38.6697 182.828L38.9253 183.957C38.8401 183.989 38.7211 184.021 38.5684 184.053C38.4157 184.089 38.2222 184.107 37.9878 184.107C37.6327 184.107 37.2847 184.03 36.9438 183.877C36.6064 183.725 36.3259 183.492 36.1022 183.18C35.882 182.867 35.7719 182.473 35.7719 181.997V173.858ZM40.6672 184V175.818H41.9243V184H40.6672ZM41.3064 174.455C41.0613 174.455 40.8501 174.371 40.6725 174.204C40.4985 174.037 40.4115 173.837 40.4115 173.602C40.4115 173.368 40.4985 173.167 40.6725 173C40.8501 172.833 41.0613 172.75 41.3064 172.75C41.5514 172.75 41.7609 172.833 41.9349 173C42.1125 173.167 42.2013 173.368 42.2013 173.602C42.2013 173.837 42.1125 174.037 41.9349 174.204C41.7609 174.371 41.5514 174.455 41.3064 174.455ZM47.5506 184.17C46.7836 184.17 46.123 183.989 45.5691 183.627C45.0151 183.265 44.589 182.766 44.2907 182.13C43.9924 181.495 43.8432 180.768 43.8432 179.952C43.8432 179.121 43.9959 178.387 44.3013 177.752C44.6103 177.113 45.04 176.614 45.5904 176.255C46.1444 175.893 46.7907 175.712 47.5293 175.712C48.1046 175.712 48.623 175.818 49.0847 176.031C49.5463 176.244 49.9245 176.543 50.2193 176.926C50.514 177.31 50.6969 177.757 50.7679 178.268H49.5108C49.415 177.896 49.2019 177.565 48.8716 177.278C48.5449 176.987 48.1046 176.841 47.5506 176.841C47.0605 176.841 46.6309 176.969 46.2615 177.224C45.8958 177.477 45.6099 177.833 45.4039 178.295C45.2015 178.753 45.1003 179.291 45.1003 179.909C45.1003 180.541 45.1998 181.092 45.3986 181.56C45.601 182.029 45.8851 182.393 46.2509 182.652C46.6202 182.912 47.0534 183.041 47.5506 183.041C47.8773 183.041 48.1738 182.984 48.4402 182.871C48.7065 182.757 48.932 182.594 49.1167 182.381C49.3013 182.168 49.4327 181.912 49.5108 181.614H50.7679C50.6969 182.097 50.5211 182.532 50.2406 182.919C49.9636 183.302 49.5961 183.608 49.138 183.835C48.6834 184.059 48.1543 184.17 47.5506 184.17ZM52.6056 184V175.818H53.8627V184H52.6056ZM53.2449 174.455C52.9998 174.455 52.7885 174.371 52.611 174.204C52.437 174.037 52.35 173.837 52.35 173.602C52.35 173.368 52.437 173.167 52.611 173C52.7885 172.833 52.9998 172.75 53.2449 172.75C53.4899 172.75 53.6994 172.833 53.8734 173C54.051 173.167 54.1397 173.368 54.1397 173.602C54.1397 173.837 54.051 174.037 53.8734 174.204C53.6994 174.371 53.4899 174.455 53.2449 174.455ZM56.1652 187.068V175.818H57.3797V177.118H57.5289C57.6212 176.976 57.749 176.795 57.9124 176.575C58.0793 176.351 58.3172 176.152 58.6262 175.978C58.9387 175.8 59.3612 175.712 59.8939 175.712C60.5828 175.712 61.1901 175.884 61.7156 176.228C62.2412 176.573 62.6514 177.061 62.9461 177.693C63.2409 178.325 63.3882 179.071 63.3882 179.93C63.3882 180.797 63.2409 181.548 62.9461 182.184C62.6514 182.816 62.243 183.306 61.721 183.654C61.199 183.998 60.597 184.17 59.9152 184.17C59.3896 184.17 58.9688 184.083 58.6528 183.909C58.3367 183.732 58.0935 183.531 57.923 183.308C57.7526 183.08 57.6212 182.892 57.5289 182.743H57.4223V187.068H56.1652ZM57.401 179.909C57.401 180.527 57.4916 181.072 57.6727 181.544C57.8538 182.013 58.1183 182.381 58.4664 182.647C58.8144 182.91 59.2405 183.041 59.7448 183.041C60.2703 183.041 60.7089 182.903 61.0605 182.626C61.4156 182.345 61.6819 181.969 61.8595 181.496C62.0406 181.021 62.1311 180.491 62.1311 179.909C62.1311 179.334 62.0423 178.815 61.8648 178.354C61.6908 177.888 61.4262 177.521 61.0711 177.251C60.7195 176.978 60.2774 176.841 59.7448 176.841C59.2334 176.841 58.8037 176.971 58.4557 177.23C58.1077 177.485 57.8449 177.844 57.6673 178.306C57.4898 178.764 57.401 179.298 57.401 179.909ZM67.7135 184.192C67.195 184.192 66.7245 184.094 66.3019 183.899C65.8794 183.7 65.5438 183.414 65.2952 183.041C65.0466 182.665 64.9223 182.21 64.9223 181.678C64.9223 181.209 65.0146 180.829 65.1993 180.538C65.384 180.243 65.6308 180.012 65.9397 179.845C66.2487 179.678 66.5896 179.554 66.9624 179.472C67.3389 179.387 67.7171 179.32 68.097 179.27C68.5942 179.206 68.9972 179.158 69.3062 179.126C69.6187 179.091 69.846 179.032 69.988 178.95C70.1336 178.869 70.2064 178.727 70.2064 178.524V178.482C70.2064 177.956 70.0626 177.548 69.7749 177.256C69.4909 176.965 69.0594 176.82 68.4806 176.82C67.8804 176.82 67.4099 176.951 67.069 177.214C66.7281 177.477 66.4884 177.757 66.3499 178.055L65.1567 177.629C65.3698 177.132 65.6539 176.745 66.009 176.468C66.3676 176.187 66.7583 175.992 67.1808 175.882C67.607 175.768 68.026 175.712 68.4379 175.712C68.7007 175.712 69.0026 175.744 69.3435 175.808C69.6879 175.868 70.02 175.994 70.3396 176.186C70.6627 176.377 70.9308 176.667 71.1439 177.054C71.357 177.441 71.4635 177.96 71.4635 178.609V184H70.2064V182.892H70.1425C70.0573 183.07 69.9152 183.26 69.7164 183.462C69.5175 183.664 69.2529 183.837 68.9227 183.979C68.5924 184.121 68.1894 184.192 67.7135 184.192ZM67.9053 183.062C68.4024 183.062 68.8215 182.965 69.1624 182.77C69.5068 182.574 69.7661 182.322 69.9401 182.013C70.1176 181.704 70.2064 181.379 70.2064 181.038V179.888C70.1531 179.952 70.036 180.01 69.8548 180.064C69.6773 180.113 69.4713 180.158 69.2369 180.197C69.0061 180.232 68.7806 180.264 68.5605 180.293C68.3438 180.317 68.1681 180.339 68.0331 180.357C67.7064 180.399 67.401 180.468 67.1169 180.564C66.8364 180.657 66.6091 180.797 66.4351 180.985C66.2646 181.17 66.1794 181.422 66.1794 181.741C66.1794 182.178 66.341 182.509 66.6642 182.732C66.9909 182.952 67.4046 183.062 67.9053 183.062ZM77.0819 184.17C76.3148 184.17 75.6543 183.989 75.1003 183.627C74.5463 183.265 74.1202 182.766 73.8219 182.13C73.5236 181.495 73.3745 180.768 73.3745 179.952C73.3745 179.121 73.5272 178.387 73.8326 177.752C74.1415 177.113 74.5712 176.614 75.1216 176.255C75.6756 175.893 76.3219 175.712 77.0605 175.712C77.6358 175.712 78.1543 175.818 78.6159 176.031C79.0776 176.244 79.4558 176.543 79.7505 176.926C80.0453 177.31 80.2282 177.757 80.2992 178.268H79.0421C78.9462 177.896 78.7331 177.565 78.4029 177.278C78.0762 176.987 77.6358 176.841 77.0819 176.841C76.5918 176.841 76.1621 176.969 75.7928 177.224C75.427 177.477 75.1412 177.833 74.9352 178.295C74.7328 178.753 74.6316 179.291 74.6316 179.909C74.6316 180.541 74.731 181.092 74.9299 181.56C75.1323 182.029 75.4164 182.393 75.7821 182.652C76.1515 182.912 76.5847 183.041 77.0819 183.041C77.4086 183.041 77.7051 182.984 77.9714 182.871C78.2377 182.757 78.4632 182.594 78.6479 182.381C78.8326 182.168 78.964 181.912 79.0421 181.614H80.2992C80.2282 182.097 80.0524 182.532 79.7718 182.919C79.4949 183.302 79.1273 183.608 78.6692 183.835C78.2147 184.059 77.6855 184.17 77.0819 184.17ZM82.1369 184V175.818H83.394V184H82.1369ZM82.7761 174.455C82.5311 174.455 82.3198 174.371 82.1422 174.204C81.9682 174.037 81.8812 173.837 81.8812 173.602C81.8812 173.368 81.9682 173.167 82.1422 173C82.3198 172.833 82.5311 172.75 82.7761 172.75C83.0211 172.75 83.2306 172.833 83.4047 173C83.5822 173.167 83.671 173.368 83.671 173.602C83.671 173.837 83.5822 174.037 83.4047 174.204C83.2306 174.371 83.0211 174.455 82.7761 174.455ZM89.0203 184.17C88.2817 184.17 87.6336 183.995 87.0761 183.643C86.5221 183.292 86.0889 182.8 85.7764 182.168C85.4674 181.536 85.3129 180.797 85.3129 179.952C85.3129 179.099 85.4674 178.355 85.7764 177.72C86.0889 177.084 86.5221 176.591 87.0761 176.239C87.6336 175.887 88.2817 175.712 89.0203 175.712C89.759 175.712 90.4053 175.887 90.9593 176.239C91.5168 176.591 91.95 177.084 92.259 177.72C92.5715 178.355 92.7277 179.099 92.7277 179.952C92.7277 180.797 92.5715 181.536 92.259 182.168C91.95 182.8 91.5168 183.292 90.9593 183.643C90.4053 183.995 89.759 184.17 89.0203 184.17ZM89.0203 183.041C89.5814 183.041 90.0431 182.897 90.4053 182.61C90.7675 182.322 91.0356 181.944 91.2096 181.475C91.3836 181.006 91.4706 180.499 91.4706 179.952C91.4706 179.405 91.3836 178.895 91.2096 178.423C91.0356 177.951 90.7675 177.569 90.4053 177.278C90.0431 176.987 89.5814 176.841 89.0203 176.841C88.4593 176.841 87.9976 176.987 87.6354 177.278C87.2732 177.569 87.0051 177.951 86.8311 178.423C86.657 178.895 86.57 179.405 86.57 179.952C86.57 180.499 86.657 181.006 86.8311 181.475C87.0051 181.944 87.2732 182.322 87.6354 182.61C87.9976 182.897 88.4593 183.041 89.0203 183.041ZM95.9038 179.078V184H94.6467V175.818H95.8612V177.097H95.9677C96.1594 176.681 96.4506 176.347 96.8413 176.095C97.2319 175.839 97.7362 175.712 98.354 175.712C98.908 175.712 99.3928 175.825 99.8082 176.053C100.224 176.276 100.547 176.617 100.778 177.075C101.009 177.53 101.124 178.105 101.124 178.801V184H99.8668V178.886C99.8668 178.244 99.6999 177.743 99.3661 177.384C99.0323 177.022 98.5742 176.841 97.9918 176.841C97.5906 176.841 97.2319 176.928 96.9158 177.102C96.6033 177.276 96.3565 177.53 96.1754 177.864C95.9943 178.197 95.9038 178.602 95.9038 179.078ZM106.851 184.17C106.063 184.17 105.383 183.996 104.811 183.648C104.243 183.297 103.805 182.807 103.496 182.178C103.19 181.546 103.038 180.811 103.038 179.973C103.038 179.135 103.19 178.396 103.496 177.757C103.805 177.114 104.234 176.614 104.785 176.255C105.339 175.893 105.985 175.712 106.724 175.712C107.15 175.712 107.571 175.783 107.986 175.925C108.402 176.067 108.78 176.298 109.121 176.617C109.462 176.933 109.733 177.352 109.936 177.874C110.138 178.396 110.239 179.039 110.239 179.803V180.335H103.932V179.249H108.961C108.961 178.787 108.869 178.375 108.684 178.013C108.503 177.651 108.244 177.365 107.906 177.155C107.572 176.946 107.178 176.841 106.724 176.841C106.223 176.841 105.79 176.965 105.424 177.214C105.062 177.459 104.783 177.778 104.588 178.173C104.392 178.567 104.295 178.989 104.295 179.44V180.165C104.295 180.783 104.401 181.306 104.614 181.736C104.831 182.162 105.131 182.487 105.514 182.711C105.898 182.931 106.344 183.041 106.851 183.041C107.182 183.041 107.48 182.995 107.746 182.903C108.016 182.807 108.249 182.665 108.444 182.477C108.639 182.285 108.79 182.047 108.897 181.763L110.111 182.104C109.984 182.516 109.769 182.878 109.467 183.19C109.165 183.499 108.792 183.741 108.348 183.915C107.904 184.085 107.405 184.17 106.851 184.17ZM117.947 177.651L116.818 177.97C116.747 177.782 116.642 177.599 116.503 177.422C116.369 177.24 116.184 177.091 115.949 176.974C115.715 176.857 115.415 176.798 115.049 176.798C114.549 176.798 114.131 176.914 113.797 177.145C113.467 177.372 113.302 177.661 113.302 178.013C113.302 178.325 113.416 178.572 113.643 178.753C113.87 178.934 114.225 179.085 114.708 179.206L115.923 179.504C116.654 179.682 117.199 179.953 117.558 180.319C117.917 180.681 118.096 181.148 118.096 181.72C118.096 182.189 117.961 182.608 117.691 182.977C117.425 183.347 117.052 183.638 116.573 183.851C116.093 184.064 115.536 184.17 114.9 184.17C114.066 184.17 113.375 183.989 112.828 183.627C112.281 183.265 111.935 182.736 111.789 182.04L112.983 181.741C113.096 182.182 113.311 182.512 113.627 182.732C113.947 182.952 114.364 183.062 114.879 183.062C115.465 183.062 115.93 182.938 116.274 182.69C116.622 182.437 116.796 182.136 116.796 181.784C116.796 181.5 116.697 181.262 116.498 181.07C116.299 180.875 115.994 180.729 115.582 180.634L114.218 180.314C113.469 180.136 112.919 179.861 112.567 179.488C112.219 179.112 112.045 178.641 112.045 178.077C112.045 177.615 112.175 177.207 112.434 176.852C112.697 176.496 113.054 176.218 113.505 176.015C113.959 175.813 114.474 175.712 115.049 175.712C115.859 175.712 116.495 175.889 116.956 176.244C117.421 176.599 117.752 177.068 117.947 177.651Z" fill="black"/>
<path d="M4.96449 69.0909V80H3.64347V70.4759H3.57955L0.916193 72.2443V70.902L3.64347 69.0909H4.96449Z" fill="black"/>
<path d="M118.964 69.0909V80H117.643V70.4759H117.58L114.916 72.2443V70.902L117.643 69.0909H118.964ZM125.596 80.1491C124.865 80.1491 124.218 80.0195 123.657 79.7603C123.1 79.4975 122.665 79.1371 122.352 78.679C122.04 78.2173 121.885 77.6918 121.889 77.1023C121.885 76.6406 121.976 76.2145 122.161 75.8239C122.345 75.4297 122.597 75.1012 122.917 74.8384C123.24 74.5721 123.6 74.4034 123.998 74.3324V74.2685C123.476 74.1335 123.061 73.8406 122.752 73.3896C122.443 72.935 122.29 72.4183 122.294 71.8395C122.29 71.2855 122.43 70.7901 122.714 70.3533C122.999 69.9165 123.389 69.5721 123.886 69.32C124.387 69.0678 124.957 68.9418 125.596 68.9418C126.228 68.9418 126.793 69.0678 127.29 69.32C127.787 69.5721 128.178 69.9165 128.462 70.3533C128.75 70.7901 128.895 71.2855 128.899 71.8395C128.895 72.4183 128.737 72.935 128.425 73.3896C128.116 73.8406 127.706 74.1335 127.194 74.2685V74.3324C127.588 74.4034 127.944 74.5721 128.26 74.8384C128.576 75.1012 128.828 75.4297 129.016 75.8239C129.204 76.2145 129.3 76.6406 129.304 77.1023C129.3 77.6918 129.14 78.2173 128.824 78.679C128.512 79.1371 128.077 79.4975 127.519 79.7603C126.965 80.0195 126.324 80.1491 125.596 80.1491ZM125.596 78.9773C126.09 78.9773 126.516 78.8974 126.875 78.7376C127.233 78.5778 127.51 78.3523 127.706 78.0611C127.901 77.7699 128 77.429 128.004 77.0384C128 76.6264 127.894 76.2624 127.684 75.9464C127.475 75.6303 127.189 75.3817 126.827 75.2006C126.468 75.0195 126.058 74.929 125.596 74.929C125.131 74.929 124.716 75.0195 124.35 75.2006C123.988 75.3817 123.702 75.6303 123.492 75.9464C123.286 76.2624 123.185 76.6264 123.189 77.0384C123.185 77.429 123.279 77.7699 123.471 78.0611C123.666 78.3523 123.945 78.5778 124.307 78.7376C124.669 78.8974 125.099 78.9773 125.596 78.9773ZM125.596 73.7997C125.987 73.7997 126.333 73.7216 126.635 73.5653C126.94 73.4091 127.18 73.1907 127.354 72.9102C127.528 72.6296 127.617 72.3011 127.62 71.9247C127.617 71.5554 127.53 71.234 127.359 70.9606C127.189 70.6836 126.953 70.4705 126.651 70.3214C126.349 70.1687 125.998 70.0923 125.596 70.0923C125.188 70.0923 124.831 70.1687 124.526 70.3214C124.22 70.4705 123.984 70.6836 123.817 70.9606C123.65 71.234 123.569 71.5554 123.572 71.9247C123.569 72.3011 123.652 72.6296 123.822 72.9102C123.996 73.1907 124.236 73.4091 124.542 73.5653C124.847 73.7216 125.199 73.7997 125.596 73.7997Z" fill="black"/>
<path d="M499.778 176.5C499.661 176.141 499.507 175.82 499.315 175.536C499.127 175.248 498.901 175.003 498.638 174.801C498.379 174.598 498.085 174.444 497.754 174.337C497.424 174.231 497.062 174.178 496.668 174.178C496.021 174.178 495.434 174.344 494.904 174.678C494.375 175.012 493.955 175.504 493.642 176.154C493.33 176.804 493.173 177.601 493.173 178.545C493.173 179.49 493.331 180.287 493.647 180.937C493.963 181.587 494.391 182.079 494.931 182.413C495.471 182.746 496.078 182.913 496.753 182.913C497.378 182.913 497.928 182.78 498.404 182.514C498.884 182.244 499.256 181.864 499.523 181.374C499.793 180.88 499.928 180.3 499.928 179.632L500.332 179.717H497.051V178.545H501.206V179.717C501.206 180.616 501.014 181.397 500.631 182.061C500.251 182.725 499.725 183.24 499.054 183.606C498.386 183.968 497.619 184.149 496.753 184.149C495.787 184.149 494.938 183.922 494.207 183.467C493.479 183.013 492.911 182.366 492.502 181.528C492.097 180.69 491.895 179.696 491.895 178.545C491.895 177.683 492.01 176.907 492.241 176.218C492.475 175.525 492.806 174.936 493.232 174.449C493.658 173.963 494.162 173.59 494.745 173.331C495.327 173.071 495.968 172.942 496.668 172.942C497.243 172.942 497.779 173.029 498.276 173.203C498.777 173.373 499.223 173.616 499.613 173.933C500.007 174.245 500.336 174.62 500.599 175.056C500.862 175.49 501.043 175.971 501.142 176.5H499.778ZM506.728 184.17C505.94 184.17 505.26 183.996 504.688 183.648C504.12 183.297 503.682 182.807 503.373 182.178C503.067 181.546 502.915 180.811 502.915 179.973C502.915 179.135 503.067 178.396 503.373 177.757C503.682 177.114 504.111 176.614 504.662 176.255C505.216 175.893 505.862 175.712 506.601 175.712C507.027 175.712 507.448 175.783 507.863 175.925C508.278 176.067 508.657 176.298 508.998 176.617C509.339 176.933 509.61 177.352 509.813 177.874C510.015 178.396 510.116 179.039 510.116 179.803V180.335H503.809V179.249H508.838C508.838 178.787 508.745 178.375 508.561 178.013C508.38 177.651 508.12 177.365 507.783 177.155C507.449 176.946 507.055 176.841 506.601 176.841C506.1 176.841 505.667 176.965 505.301 177.214C504.939 177.459 504.66 177.778 504.465 178.173C504.269 178.567 504.172 178.989 504.172 179.44V180.165C504.172 180.783 504.278 181.306 504.491 181.736C504.708 182.162 505.008 182.487 505.391 182.711C505.775 182.931 506.221 183.041 506.728 183.041C507.059 183.041 507.357 182.995 507.623 182.903C507.893 182.807 508.126 182.665 508.321 182.477C508.516 182.285 508.667 182.047 508.774 181.763L509.988 182.104C509.861 182.516 509.646 182.878 509.344 183.19C509.042 183.499 508.669 183.741 508.225 183.915C507.781 184.085 507.282 184.17 506.728 184.17ZM505.961 174.71L507.261 172.239H508.731L507.069 174.71H505.961ZM513.286 179.078V184H512.028V175.818H513.243V177.097H513.35C513.541 176.681 513.832 176.347 514.223 176.095C514.614 175.839 515.118 175.712 515.736 175.712C516.29 175.712 516.775 175.825 517.19 176.053C517.606 176.276 517.929 176.617 518.16 177.075C518.39 177.53 518.506 178.105 518.506 178.801V184H517.249V178.886C517.249 178.244 517.082 177.743 516.748 177.384C516.414 177.022 515.956 176.841 515.374 176.841C514.972 176.841 514.614 176.928 514.298 177.102C513.985 177.276 513.738 177.53 513.557 177.864C513.376 178.197 513.286 178.602 513.286 179.078ZM524.233 184.17C523.445 184.17 522.765 183.996 522.193 183.648C521.625 183.297 521.186 182.807 520.877 182.178C520.572 181.546 520.419 180.811 520.419 179.973C520.419 179.135 520.572 178.396 520.877 177.757C521.186 177.114 521.616 176.614 522.167 176.255C522.721 175.893 523.367 175.712 524.105 175.712C524.532 175.712 524.952 175.783 525.368 175.925C525.783 176.067 526.162 176.298 526.502 176.617C526.843 176.933 527.115 177.352 527.317 177.874C527.52 178.396 527.621 179.039 527.621 179.803V180.335H521.314V179.249H526.343C526.343 178.787 526.25 178.375 526.066 178.013C525.885 177.651 525.625 177.365 525.288 177.155C524.954 176.946 524.56 176.841 524.105 176.841C523.605 176.841 523.172 176.965 522.806 177.214C522.444 177.459 522.165 177.778 521.969 178.173C521.774 178.567 521.676 178.989 521.676 179.44V180.165C521.676 180.783 521.783 181.306 521.996 181.736C522.213 182.162 522.513 182.487 522.896 182.711C523.28 182.931 523.725 183.041 524.233 183.041C524.564 183.041 524.862 182.995 525.128 182.903C525.398 182.807 525.631 182.665 525.826 182.477C526.021 182.285 526.172 182.047 526.279 181.763L527.493 182.104C527.365 182.516 527.151 182.878 526.849 183.19C526.547 183.499 526.174 183.741 525.73 183.915C525.286 184.085 524.787 184.17 524.233 184.17ZM529.533 184V175.818H530.748V177.054H530.833C530.982 176.649 531.252 176.321 531.643 176.069C532.033 175.816 532.474 175.69 532.964 175.69C533.056 175.69 533.172 175.692 533.31 175.696C533.449 175.699 533.553 175.705 533.624 175.712V176.99C533.582 176.979 533.484 176.963 533.331 176.942C533.182 176.917 533.024 176.905 532.857 176.905C532.46 176.905 532.104 176.988 531.792 177.155C531.483 177.319 531.238 177.546 531.057 177.837C530.879 178.125 530.79 178.453 530.79 178.822V184H529.533ZM538.189 184.17C537.451 184.17 536.803 183.995 536.245 183.643C535.691 183.292 535.258 182.8 534.945 182.168C534.636 181.536 534.482 180.797 534.482 179.952C534.482 179.099 534.636 178.355 534.945 177.72C535.258 177.084 535.691 176.591 536.245 176.239C536.803 175.887 537.451 175.712 538.189 175.712C538.928 175.712 539.574 175.887 540.128 176.239C540.686 176.591 541.119 177.084 541.428 177.72C541.74 178.355 541.897 179.099 541.897 179.952C541.897 180.797 541.74 181.536 541.428 182.168C541.119 182.8 540.686 183.292 540.128 183.643C539.574 183.995 538.928 184.17 538.189 184.17ZM538.189 183.041C538.75 183.041 539.212 182.897 539.574 182.61C539.936 182.322 540.205 181.944 540.379 181.475C540.553 181.006 540.64 180.499 540.64 179.952C540.64 179.405 540.553 178.895 540.379 178.423C540.205 177.951 539.936 177.569 539.574 177.278C539.212 176.987 538.75 176.841 538.189 176.841C537.628 176.841 537.167 176.987 536.804 177.278C536.442 177.569 536.174 177.951 536 178.423C535.826 178.895 535.739 179.405 535.739 179.952C535.739 180.499 535.826 181.006 536 181.475C536.174 181.944 536.442 182.322 536.804 182.61C537.167 182.897 537.628 183.041 538.189 183.041Z" fill="black"/>
<path d="M3 90V147" stroke="black" stroke-width="2"/>
<path d="M123 90V147" stroke="black" stroke-width="18"/>
<path d="M63 90V147" stroke="black" stroke-width="9"/>
<path d="M93 90V147" stroke="black" stroke-width="13.5"/>
<path d="M33 90V147" stroke="black" stroke-width="3.5"/>
<circle cx="484" cy="118" r="29" fill="#F7DDBA"/>
<circle cx="559" cy="118" r="29" fill="#E4D9F2"/>
<path d="M480.321 124V113.091H486.862V114.263H481.642V117.949H486.372V119.121H481.642V124H480.321Z" fill="black"/>
<path d="M554.321 113.091H555.898L559.605 122.146H559.733L563.44 113.091H565.017V124H563.781V115.712H563.675L560.266 124H559.072L555.663 115.712H555.557V124H554.321V113.091Z" fill="black"/>
</svg>
