<svg width="490" height="156" viewBox="0 0 490 156" fill="none" xmlns="http://www.w3.org/2000/svg">
<path d="M193.957 144.194V143.218H200.772V144.194H197.915V152.305H196.814V144.194H193.957ZM204.109 152.447C203.494 152.447 202.954 152.301 202.49 152.008C202.028 151.715 201.667 151.305 201.407 150.779C201.15 150.252 201.021 149.637 201.021 148.933C201.021 148.223 201.15 147.603 201.407 147.074C201.667 146.544 202.028 146.133 202.49 145.84C202.954 145.547 203.494 145.401 204.109 145.401C204.724 145.401 205.263 145.547 205.724 145.84C206.189 146.133 206.55 146.544 206.807 147.074C207.067 147.603 207.197 148.223 207.197 148.933C207.197 149.637 207.067 150.252 206.807 150.779C206.55 151.305 206.189 151.715 205.724 152.008C205.263 152.301 204.724 152.447 204.109 152.447ZM204.109 151.506C204.577 151.506 204.961 151.387 205.263 151.147C205.565 150.907 205.788 150.592 205.933 150.202C206.078 149.812 206.15 149.388 206.15 148.933C206.15 148.477 206.078 148.053 205.933 147.659C205.788 147.266 205.565 146.948 205.263 146.705C204.961 146.463 204.577 146.342 204.109 146.342C203.642 146.342 203.257 146.463 202.955 146.705C202.654 146.948 202.43 147.266 202.285 147.659C202.141 148.053 202.068 148.477 202.068 148.933C202.068 149.388 202.141 149.812 202.285 150.202C202.43 150.592 202.654 150.907 202.955 151.147C203.257 151.387 203.642 151.506 204.109 151.506ZM211.76 145.49V146.377H208.228V145.49H211.76ZM209.257 143.857H210.305V150.353C210.305 150.649 210.347 150.87 210.433 151.018C210.522 151.163 210.634 151.261 210.77 151.311C210.909 151.359 211.056 151.382 211.21 151.382C211.325 151.382 211.42 151.376 211.494 151.365C211.568 151.35 211.627 151.338 211.671 151.329L211.884 152.27C211.813 152.296 211.714 152.323 211.587 152.35C211.46 152.379 211.298 152.394 211.103 152.394C210.807 152.394 210.518 152.33 210.234 152.203C209.953 152.076 209.719 151.882 209.532 151.622C209.349 151.362 209.257 151.033 209.257 150.637V143.857ZM215.341 152.465C214.909 152.465 214.517 152.384 214.165 152.221C213.813 152.055 213.533 151.817 213.326 151.506C213.119 151.193 213.016 150.814 213.016 150.371C213.016 149.98 213.093 149.664 213.246 149.421C213.4 149.176 213.606 148.983 213.863 148.844C214.12 148.705 214.404 148.602 214.715 148.534C215.029 148.463 215.344 148.406 215.66 148.365C216.074 148.312 216.41 148.272 216.667 148.245C216.928 148.216 217.117 148.167 217.235 148.099C217.357 148.031 217.417 147.912 217.417 147.744V147.708C217.417 147.27 217.297 146.93 217.058 146.688C216.821 146.445 216.462 146.324 215.98 146.324C215.48 146.324 215.088 146.433 214.804 146.652C214.52 146.871 214.32 147.105 214.205 147.353L213.211 146.998C213.388 146.584 213.625 146.262 213.921 146.031C214.22 145.797 214.545 145.635 214.897 145.543C215.252 145.448 215.601 145.401 215.944 145.401C216.163 145.401 216.414 145.428 216.698 145.481C216.985 145.531 217.262 145.636 217.528 145.796C217.797 145.956 218.021 146.197 218.198 146.519C218.376 146.842 218.464 147.273 218.464 147.815V152.305H217.417V151.382H217.364C217.293 151.53 217.175 151.688 217.009 151.857C216.843 152.026 216.623 152.169 216.348 152.287C216.073 152.406 215.737 152.465 215.341 152.465ZM215.5 151.524C215.915 151.524 216.264 151.443 216.548 151.28C216.835 151.118 217.05 150.907 217.195 150.65C217.343 150.393 217.417 150.122 217.417 149.838V148.88C217.373 148.933 217.275 148.982 217.124 149.026C216.977 149.068 216.805 149.105 216.61 149.137C216.417 149.167 216.23 149.193 216.046 149.217C215.866 149.238 215.719 149.255 215.607 149.27C215.335 149.306 215.08 149.363 214.844 149.443C214.61 149.52 214.421 149.637 214.276 149.794C214.134 149.948 214.063 150.158 214.063 150.424C214.063 150.788 214.197 151.063 214.467 151.249C214.739 151.433 215.083 151.524 215.5 151.524ZM221.423 143.218V152.305H220.376V143.218H221.423ZM229.429 152.447C228.861 152.447 228.359 152.304 227.924 152.017C227.49 151.727 227.149 151.319 226.904 150.792C226.658 150.263 226.536 149.637 226.536 148.915C226.536 148.199 226.658 147.578 226.904 147.052C227.149 146.525 227.491 146.118 227.929 145.831C228.367 145.544 228.872 145.401 229.446 145.401C229.89 145.401 230.241 145.475 230.498 145.623C230.758 145.768 230.956 145.933 231.093 146.12C231.232 146.303 231.34 146.454 231.416 146.572H231.505V143.218H232.552V152.305H231.541V151.258H231.416C231.34 151.382 231.23 151.539 231.088 151.728C230.946 151.915 230.743 152.082 230.48 152.23C230.217 152.375 229.866 152.447 229.429 152.447ZM229.571 151.506C229.991 151.506 230.346 151.397 230.636 151.178C230.925 150.956 231.146 150.65 231.297 150.26C231.448 149.866 231.523 149.412 231.523 148.897C231.523 148.389 231.449 147.943 231.301 147.562C231.153 147.177 230.934 146.879 230.644 146.666C230.354 146.45 229.997 146.342 229.571 146.342C229.127 146.342 228.757 146.456 228.461 146.683C228.168 146.908 227.948 147.214 227.8 147.602C227.655 147.986 227.583 148.418 227.583 148.897C227.583 149.383 227.657 149.823 227.805 150.22C227.955 150.613 228.177 150.927 228.47 151.16C228.766 151.391 229.133 151.506 229.571 151.506ZM237.473 152.447C236.816 152.447 236.25 152.302 235.774 152.012C235.3 151.719 234.935 151.311 234.678 150.788C234.423 150.261 234.296 149.649 234.296 148.951C234.296 148.253 234.423 147.637 234.678 147.105C234.935 146.569 235.293 146.152 235.752 145.854C236.213 145.552 236.751 145.401 237.367 145.401C237.722 145.401 238.072 145.46 238.418 145.578C238.764 145.697 239.079 145.889 239.363 146.155C239.647 146.419 239.874 146.768 240.042 147.202C240.211 147.637 240.295 148.173 240.295 148.809V149.252H235.042V148.347H239.23C239.23 147.963 239.153 147.62 239 147.318C238.849 147.016 238.633 146.778 238.352 146.603C238.074 146.429 237.745 146.342 237.367 146.342C236.95 146.342 236.589 146.445 236.284 146.652C235.982 146.856 235.75 147.123 235.587 147.451C235.425 147.779 235.343 148.131 235.343 148.507V149.11C235.343 149.625 235.432 150.061 235.61 150.419C235.79 150.774 236.04 151.045 236.359 151.231C236.679 151.415 237.05 151.506 237.473 151.506C237.748 151.506 237.997 151.468 238.219 151.391C238.443 151.311 238.637 151.193 238.8 151.036C238.963 150.876 239.088 150.678 239.177 150.442L240.189 150.726C240.082 151.069 239.903 151.37 239.652 151.631C239.4 151.888 239.09 152.089 238.72 152.234C238.35 152.376 237.935 152.447 237.473 152.447ZM245.402 152.305V145.49H246.414V146.555H246.503C246.645 146.191 246.874 145.908 247.191 145.707C247.507 145.503 247.887 145.401 248.331 145.401C248.78 145.401 249.155 145.503 249.453 145.707C249.755 145.908 249.99 146.191 250.159 146.555H250.23C250.404 146.203 250.666 145.923 251.015 145.716C251.364 145.506 251.783 145.401 252.271 145.401C252.88 145.401 253.379 145.592 253.766 145.973C254.154 146.352 254.348 146.942 254.348 147.744V152.305H253.3V147.744C253.3 147.241 253.163 146.882 252.888 146.666C252.613 146.45 252.289 146.342 251.916 146.342C251.437 146.342 251.066 146.487 250.802 146.776C250.539 147.063 250.407 147.427 250.407 147.868V152.305H249.343V147.637C249.343 147.25 249.217 146.938 248.965 146.701C248.714 146.461 248.39 146.342 247.994 146.342C247.721 146.342 247.467 146.414 247.23 146.559C246.997 146.704 246.807 146.905 246.662 147.163C246.52 147.417 246.45 147.711 246.45 148.046V152.305H245.402ZM259.12 152.447C258.463 152.447 257.897 152.302 257.42 152.012C256.947 151.719 256.582 151.311 256.324 150.788C256.07 150.261 255.943 149.649 255.943 148.951C255.943 148.253 256.07 147.637 256.324 147.105C256.582 146.569 256.94 146.152 257.398 145.854C257.86 145.552 258.398 145.401 259.013 145.401C259.368 145.401 259.719 145.46 260.065 145.578C260.411 145.697 260.726 145.889 261.01 146.155C261.294 146.419 261.52 146.768 261.689 147.202C261.857 147.637 261.942 148.173 261.942 148.809V149.252H256.688V148.347H260.877C260.877 147.963 260.8 147.62 260.646 147.318C260.495 147.016 260.279 146.778 259.998 146.603C259.72 146.429 259.392 146.342 259.013 146.342C258.596 146.342 258.235 146.445 257.931 146.652C257.629 146.856 257.397 147.123 257.234 147.451C257.071 147.779 256.99 148.131 256.99 148.507V149.11C256.99 149.625 257.079 150.061 257.256 150.419C257.437 150.774 257.687 151.045 258.006 151.231C258.326 151.415 258.697 151.506 259.12 151.506C259.395 151.506 259.643 151.468 259.865 151.391C260.09 151.311 260.284 151.193 260.446 151.036C260.609 150.876 260.735 150.678 260.824 150.442L261.835 150.726C261.729 151.069 261.55 151.37 261.298 151.631C261.047 151.888 260.736 152.089 260.367 152.234C259.997 152.376 259.581 152.447 259.12 152.447ZM266.108 152.447C265.54 152.447 265.039 152.304 264.604 152.017C264.169 151.727 263.829 151.319 263.584 150.792C263.338 150.263 263.215 149.637 263.215 148.915C263.215 148.199 263.338 147.578 263.584 147.052C263.829 146.525 264.171 146.118 264.609 145.831C265.046 145.544 265.552 145.401 266.126 145.401C266.57 145.401 266.92 145.475 267.178 145.623C267.438 145.768 267.636 145.933 267.772 146.12C267.911 146.303 268.019 146.454 268.096 146.572H268.185V143.218H269.232V152.305H268.22V151.258H268.096C268.019 151.382 267.91 151.539 267.768 151.728C267.626 151.915 267.423 152.082 267.16 152.23C266.897 152.375 266.546 152.447 266.108 152.447ZM266.25 151.506C266.67 151.506 267.025 151.397 267.315 151.178C267.605 150.956 267.825 150.65 267.976 150.26C268.127 149.866 268.203 149.412 268.203 148.897C268.203 148.389 268.129 147.943 267.981 147.562C267.833 147.177 267.614 146.879 267.324 146.666C267.034 146.45 266.676 146.342 266.25 146.342C265.807 146.342 265.437 146.456 265.141 146.683C264.848 146.908 264.628 147.214 264.48 147.602C264.335 147.986 264.262 148.418 264.262 148.897C264.262 149.383 264.336 149.823 264.484 150.22C264.635 150.613 264.857 150.927 265.15 151.16C265.446 151.391 265.812 151.506 266.25 151.506ZM273.301 152.465C272.869 152.465 272.477 152.384 272.125 152.221C271.773 152.055 271.493 151.817 271.286 151.506C271.079 151.193 270.976 150.814 270.976 150.371C270.976 149.98 271.053 149.664 271.207 149.421C271.36 149.176 271.566 148.983 271.823 148.844C272.081 148.705 272.365 148.602 272.675 148.534C272.989 148.463 273.304 148.406 273.62 148.365C274.034 148.312 274.37 148.272 274.628 148.245C274.888 148.216 275.077 148.167 275.196 148.099C275.317 148.031 275.377 147.912 275.377 147.744V147.708C275.377 147.27 275.258 146.93 275.018 146.688C274.781 146.445 274.422 146.324 273.94 146.324C273.44 146.324 273.048 146.433 272.764 146.652C272.48 146.871 272.28 147.105 272.165 147.353L271.171 146.998C271.349 146.584 271.585 146.262 271.881 146.031C272.18 145.797 272.505 145.635 272.857 145.543C273.212 145.448 273.561 145.401 273.904 145.401C274.123 145.401 274.375 145.428 274.659 145.481C274.946 145.531 275.222 145.636 275.488 145.796C275.758 145.956 275.981 146.197 276.158 146.519C276.336 146.842 276.425 147.273 276.425 147.815V152.305H275.377V151.382H275.324C275.253 151.53 275.135 151.688 274.969 151.857C274.804 152.026 274.583 152.169 274.308 152.287C274.033 152.406 273.697 152.465 273.301 152.465ZM273.461 151.524C273.875 151.524 274.224 151.443 274.508 151.28C274.795 151.118 275.011 150.907 275.156 150.65C275.304 150.393 275.377 150.122 275.377 149.838V148.88C275.333 148.933 275.235 148.982 275.085 149.026C274.937 149.068 274.765 149.105 274.57 149.137C274.378 149.167 274.19 149.193 274.006 149.217C273.826 149.238 273.68 149.255 273.567 149.27C273.295 149.306 273.041 149.363 272.804 149.443C272.57 149.52 272.381 149.637 272.236 149.794C272.094 149.948 272.023 150.158 272.023 150.424C272.023 150.788 272.158 151.063 272.427 151.249C272.699 151.433 273.044 151.524 273.461 151.524ZM279.383 143.218V152.305H278.336V143.218H279.383ZM282.348 143.218V152.305H281.301V143.218H282.348ZM286.272 152.465C285.84 152.465 285.448 152.384 285.096 152.221C284.744 152.055 284.464 151.817 284.257 151.506C284.05 151.193 283.947 150.814 283.947 150.371C283.947 149.98 284.024 149.664 284.177 149.421C284.331 149.176 284.537 148.983 284.794 148.844C285.052 148.705 285.336 148.602 285.646 148.534C285.96 148.463 286.275 148.406 286.591 148.365C287.005 148.312 287.341 148.272 287.598 148.245C287.859 148.216 288.048 148.167 288.166 148.099C288.288 148.031 288.348 147.912 288.348 147.744V147.708C288.348 147.27 288.229 146.93 287.989 146.688C287.752 146.445 287.393 146.324 286.911 146.324C286.411 146.324 286.019 146.433 285.735 146.652C285.451 146.871 285.251 147.105 285.136 147.353L284.142 146.998C284.319 146.584 284.556 146.262 284.852 146.031C285.151 145.797 285.476 145.635 285.828 145.543C286.183 145.448 286.532 145.401 286.875 145.401C287.094 145.401 287.346 145.428 287.63 145.481C287.916 145.531 288.193 145.636 288.459 145.796C288.728 145.956 288.952 146.197 289.129 146.519C289.307 146.842 289.396 147.273 289.396 147.815V152.305H288.348V151.382H288.295C288.224 151.53 288.106 151.688 287.94 151.857C287.774 152.026 287.554 152.169 287.279 152.287C287.004 152.406 286.668 152.465 286.272 152.465ZM286.432 151.524C286.846 151.524 287.195 151.443 287.479 151.28C287.766 151.118 287.982 150.907 288.126 150.65C288.274 150.393 288.348 150.122 288.348 149.838V148.88C288.304 148.933 288.206 148.982 288.055 149.026C287.908 149.068 287.736 149.105 287.541 149.137C287.349 149.167 287.161 149.193 286.977 149.217C286.797 149.238 286.65 149.255 286.538 149.27C286.266 149.306 286.011 149.363 285.775 149.443C285.541 149.52 285.352 149.637 285.207 149.794C285.065 149.948 284.994 150.158 284.994 150.424C284.994 150.788 285.128 151.063 285.398 151.249C285.67 151.433 286.014 151.524 286.432 151.524ZM296.134 147.016L295.194 147.282C295.135 147.126 295.047 146.973 294.932 146.825C294.82 146.674 294.666 146.55 294.47 146.453C294.275 146.355 294.025 146.306 293.721 146.306C293.304 146.306 292.956 146.402 292.678 146.595C292.403 146.784 292.265 147.025 292.265 147.318C292.265 147.578 292.36 147.784 292.549 147.935C292.739 148.085 293.034 148.211 293.437 148.312L294.448 148.56C295.058 148.708 295.512 148.934 295.811 149.239C296.109 149.541 296.259 149.93 296.259 150.406C296.259 150.797 296.146 151.146 295.921 151.453C295.7 151.761 295.389 152.003 294.99 152.181C294.59 152.358 294.126 152.447 293.596 152.447C292.901 152.447 292.326 152.296 291.87 151.995C291.415 151.693 291.126 151.252 291.005 150.672L291.999 150.424C292.094 150.791 292.273 151.066 292.536 151.249C292.802 151.433 293.15 151.524 293.579 151.524C294.067 151.524 294.454 151.421 294.741 151.214C295.031 151.004 295.176 150.752 295.176 150.459C295.176 150.223 295.093 150.024 294.928 149.865C294.762 149.702 294.507 149.581 294.164 149.501L293.028 149.235C292.404 149.087 291.946 148.858 291.653 148.547C291.363 148.233 291.218 147.841 291.218 147.371C291.218 146.987 291.326 146.646 291.542 146.351C291.761 146.055 292.058 145.823 292.434 145.654C292.812 145.485 293.241 145.401 293.721 145.401C294.395 145.401 294.925 145.549 295.309 145.845C295.697 146.141 295.972 146.531 296.134 147.016Z" fill="black"/>
<path d="M235.941 12.6951V11.8964L238.94 8.61289C239.292 8.22834 239.582 7.89408 239.81 7.6101C240.038 7.32316 240.206 7.05398 240.316 6.80254C240.428 6.54814 240.484 6.28191 240.484 6.00385C240.484 5.68438 240.407 5.4078 240.254 5.17411C240.103 4.94042 239.896 4.75997 239.632 4.63278C239.369 4.50558 239.073 4.44198 238.745 4.44198C238.396 4.44198 238.091 4.51445 237.831 4.6594C237.574 4.80139 237.374 5.00106 237.232 5.25841C237.093 5.51577 237.023 5.81749 237.023 6.16359H235.976C235.976 5.63113 236.099 5.16375 236.344 4.76145C236.59 4.35915 236.924 4.04559 237.347 3.82078C237.773 3.59596 238.251 3.48356 238.78 3.48356C239.313 3.48356 239.785 3.59596 240.196 3.82078C240.607 4.04559 240.93 4.3488 241.163 4.73039C241.397 5.11199 241.514 5.53647 241.514 6.00385C241.514 6.33812 241.453 6.66499 241.332 6.98446C241.213 7.30098 241.006 7.65447 240.711 8.04494C240.418 8.43245 240.011 8.90575 239.49 9.46483L237.449 11.6479V11.7189H241.673V12.6951H235.941ZM246.417 12.8193C245.807 12.8193 245.269 12.7113 244.802 12.4954C244.337 12.2765 243.975 11.9763 243.715 11.5947C243.454 11.2101 243.326 10.7723 243.329 10.2813C243.326 9.89671 243.401 9.54174 243.555 9.21635C243.709 8.888 243.919 8.61437 244.185 8.39547C244.454 8.17362 244.754 8.03311 245.086 7.97395V7.9207C244.651 7.80829 244.305 7.56425 244.047 7.18857C243.79 6.80994 243.663 6.37953 243.666 5.89736C243.663 5.4359 243.78 5.02324 244.016 4.6594C244.253 4.29555 244.578 4.00862 244.992 3.79859C245.41 3.58857 245.884 3.48356 246.417 3.48356C246.943 3.48356 247.414 3.58857 247.828 3.79859C248.242 4.00862 248.567 4.29555 248.804 4.6594C249.044 5.02324 249.165 5.4359 249.168 5.89736C249.165 6.37953 249.033 6.80994 248.773 7.18857C248.516 7.56425 248.174 7.80829 247.748 7.9207V7.97395C248.076 8.03311 248.372 8.17362 248.635 8.39547C248.899 8.61437 249.109 8.888 249.265 9.21635C249.422 9.54174 249.502 9.89671 249.505 10.2813C249.502 10.7723 249.369 11.2101 249.106 11.5947C248.845 11.9763 248.483 12.2765 248.019 12.4954C247.557 12.7113 247.023 12.8193 246.417 12.8193ZM246.417 11.8431C246.828 11.8431 247.183 11.7766 247.482 11.6435C247.78 11.5104 248.011 11.3225 248.174 11.0799C248.337 10.8374 248.419 10.5534 248.422 10.228C248.419 9.88488 248.331 9.58167 248.156 9.3184C247.982 9.05513 247.743 8.84806 247.442 8.6972C247.143 8.54634 246.801 8.47091 246.417 8.47091C246.029 8.47091 245.683 8.54634 245.378 8.6972C245.077 8.84806 244.839 9.05513 244.664 9.3184C244.493 9.58167 244.408 9.88488 244.411 10.228C244.408 10.5534 244.487 10.8374 244.646 11.0799C244.809 11.3225 245.041 11.5104 245.343 11.6435C245.645 11.7766 246.003 11.8431 246.417 11.8431ZM246.417 7.53023C246.742 7.53023 247.031 7.46515 247.282 7.335C247.536 7.20484 247.736 7.02292 247.881 6.78923C248.026 6.55554 248.1 6.28191 248.103 5.96836C248.1 5.66071 248.027 5.39301 247.885 5.16523C247.743 4.9345 247.547 4.75702 247.295 4.63278C247.044 4.50558 246.751 4.44198 246.417 4.44198C246.077 4.44198 245.779 4.50558 245.525 4.63278C245.271 4.75702 245.074 4.9345 244.935 5.16523C244.796 5.39301 244.728 5.66071 244.731 5.96836C244.728 6.28191 244.797 6.55554 244.939 6.78923C245.084 7.02292 245.284 7.20484 245.538 7.335C245.793 7.46515 246.085 7.53023 246.417 7.53023Z" fill="black"/>
<path d="M242.958 66.1242C242.585 66.1183 242.212 66.0473 241.84 65.9113C241.467 65.7752 241.127 65.5459 240.819 65.2235C240.512 64.8981 240.265 64.4588 240.078 63.9057C239.892 63.3495 239.799 62.6514 239.799 61.8113C239.799 61.0067 239.874 60.2938 240.025 59.6726C240.176 59.0485 240.395 58.5234 240.682 58.0974C240.969 57.6685 241.315 57.3431 241.72 57.1213C242.128 56.8994 242.588 56.7885 243.1 56.7885C243.609 56.7885 244.061 56.8905 244.458 57.0947C244.857 57.2958 245.182 57.5768 245.434 57.9377C245.685 58.2986 245.848 58.7142 245.922 59.1845H244.839C244.739 58.7763 244.543 58.4376 244.254 58.1684C243.964 57.8993 243.579 57.7647 243.1 57.7647C242.396 57.7647 241.841 58.0708 241.436 58.6831C241.034 59.2955 240.831 60.1548 240.828 61.2611H240.899C241.065 61.0097 241.261 60.7952 241.489 60.6177C241.72 60.4373 241.974 60.2983 242.252 60.2007C242.53 60.103 242.825 60.0542 243.135 60.0542C243.656 60.0542 244.132 60.1844 244.564 60.4447C244.996 60.702 245.342 61.0585 245.602 61.514C245.863 61.9666 245.993 62.4858 245.993 63.0715C245.993 63.6335 245.867 64.1482 245.616 64.6156C245.364 65.08 245.011 65.4498 244.555 65.7249C244.103 65.997 243.57 66.1302 242.958 66.1242ZM242.958 65.1481C243.331 65.1481 243.665 65.0549 243.961 64.8685C244.259 64.6822 244.495 64.4322 244.666 64.1187C244.841 63.8051 244.928 63.456 244.928 63.0715C244.928 62.6958 244.844 62.3541 244.675 62.0465C244.509 61.7359 244.28 61.4889 243.987 61.3055C243.697 61.1221 243.366 61.0304 242.993 61.0304C242.712 61.0304 242.451 61.0866 242.208 61.199C241.965 61.3085 241.753 61.4593 241.569 61.6516C241.389 61.8439 241.247 62.0643 241.143 62.3127C241.04 62.5583 240.988 62.8171 240.988 63.0892C240.988 63.4501 241.072 63.7873 241.241 64.1009C241.412 64.4145 241.646 64.6674 241.942 64.8597C242.241 65.0519 242.579 65.1481 242.958 65.1481Z" fill="black"/>
<circle cx="243" cy="72" r="49.5835" stroke="black" stroke-width="0.833"/>
<circle cx="243.255" cy="98.255" r="22.8385" stroke="black" stroke-width="0.833"/>
<path d="M9.52863 152.305V143.218H12.5991C13.312 143.218 13.8948 143.346 14.3474 143.604C14.8029 143.858 15.1401 144.203 15.359 144.638C15.5779 145.072 15.6874 145.558 15.6874 146.093C15.6874 146.628 15.5779 147.115 15.359 147.553C15.1431 147.991 14.8088 148.34 14.3562 148.6C13.9037 148.857 13.3239 148.986 12.6169 148.986H10.4161V148.01H12.5814C13.0695 148.01 13.4614 147.925 13.7572 147.757C14.053 147.588 14.2675 147.36 14.4006 147.074C14.5367 146.784 14.6047 146.457 14.6047 146.093C14.6047 145.729 14.5367 145.404 14.4006 145.117C14.2675 144.83 14.0516 144.605 13.7528 144.442C13.454 144.277 13.0576 144.194 12.5636 144.194H10.629V152.305H9.52863ZM19.3236 152.465C18.8917 152.465 18.4998 152.383 18.1478 152.221C17.7958 152.055 17.5162 151.817 17.3092 151.506C17.1021 151.193 16.9986 150.814 16.9986 150.37C16.9986 149.98 17.0755 149.663 17.2293 149.421C17.3831 149.175 17.5887 148.983 17.8461 148.844C18.1034 148.705 18.3874 148.601 18.698 148.533C19.0116 148.462 19.3266 148.406 19.6431 148.365C20.0572 148.312 20.393 148.272 20.6503 148.245C20.9107 148.215 21.1 148.167 21.2183 148.099C21.3396 148.03 21.4002 147.912 21.4002 147.744V147.708C21.4002 147.27 21.2804 146.93 21.0408 146.688C20.8042 146.445 20.4448 146.324 19.9626 146.324C19.4627 146.324 19.0707 146.433 18.7867 146.652C18.5028 146.871 18.3031 147.105 18.1877 147.353L17.1938 146.998C17.3713 146.584 17.6079 146.262 17.9037 146.031C18.2025 145.797 18.5279 145.634 18.8799 145.543C19.2349 145.448 19.5839 145.401 19.9271 145.401C20.146 145.401 20.3974 145.427 20.6814 145.481C20.9683 145.531 21.2449 145.636 21.5111 145.796C21.7803 145.955 22.0037 146.196 22.1812 146.519C22.3586 146.841 22.4474 147.273 22.4474 147.815V152.305H21.4002V151.382H21.347C21.276 151.53 21.1577 151.688 20.992 151.857C20.8263 152.025 20.606 152.169 20.3309 152.287C20.0558 152.406 19.72 152.465 19.3236 152.465ZM19.4834 151.524C19.8975 151.524 20.2466 151.443 20.5305 151.28C20.8175 151.117 21.0334 150.907 21.1784 150.65C21.3263 150.393 21.4002 150.122 21.4002 149.838V148.879C21.3558 148.933 21.2582 148.982 21.1074 149.026C20.9595 149.067 20.7879 149.104 20.5927 149.137C20.4004 149.166 20.2125 149.193 20.0291 149.217C19.8487 149.237 19.7023 149.255 19.5899 149.27C19.3177 149.305 19.0633 149.363 18.8267 149.443C18.593 149.52 18.4037 149.637 18.2587 149.794C18.1167 149.947 18.0457 150.157 18.0457 150.424C18.0457 150.787 18.1803 151.063 18.4495 151.249C18.7217 151.432 19.0663 151.524 19.4834 151.524ZM24.3587 152.305V145.489H25.3704V146.519H25.4413C25.5656 146.182 25.7904 145.908 26.1158 145.698C26.4412 145.488 26.808 145.383 27.2162 145.383C27.2931 145.383 27.3893 145.384 27.5046 145.387C27.62 145.39 27.7072 145.395 27.7664 145.401V146.466C27.7309 146.457 27.6496 146.443 27.5224 146.426C27.3981 146.405 27.2665 146.395 27.1275 146.395C26.7962 146.395 26.5003 146.464 26.24 146.603C25.9827 146.739 25.7786 146.929 25.6277 147.171C25.4798 147.411 25.4058 147.684 25.4058 147.992V152.305H24.3587ZM32.3988 145.489V146.377H28.8668V145.489H32.3988ZM29.8962 143.857H30.9434V150.353C30.9434 150.648 30.9863 150.87 31.0721 151.018C31.1608 151.163 31.2732 151.261 31.4093 151.311C31.5483 151.358 31.6948 151.382 31.8486 151.382C31.9639 151.382 32.0586 151.376 32.1326 151.364C32.2065 151.349 32.2657 151.338 32.31 151.329L32.523 152.269C32.452 152.296 32.3529 152.323 32.2257 152.349C32.0985 152.379 31.9373 152.394 31.7421 152.394C31.4463 152.394 31.1564 152.33 30.8724 152.203C30.5914 152.076 30.3577 151.882 30.1713 151.622C29.9879 151.361 29.8962 151.033 29.8962 150.637V143.857ZM33.974 152.305V145.489H35.0211V152.305H33.974ZM34.5064 144.354C34.3023 144.354 34.1263 144.284 33.9784 144.145C33.8335 144.006 33.761 143.839 33.761 143.644C33.761 143.448 33.8335 143.281 33.9784 143.142C34.1263 143.003 34.3023 142.934 34.5064 142.934C34.7105 142.934 34.8851 143.003 35.03 143.142C35.1779 143.281 35.2519 143.448 35.2519 143.644C35.2519 143.839 35.1779 144.006 35.03 144.145C34.8851 144.284 34.7105 144.354 34.5064 144.354ZM39.7079 152.447C39.0689 152.447 38.5187 152.296 38.0573 151.994C37.5958 151.693 37.2408 151.277 36.9923 150.747C36.7439 150.218 36.6196 149.613 36.6196 148.933C36.6196 148.241 36.7468 147.63 37.0012 147.1C37.2586 146.568 37.6165 146.152 38.075 145.853C38.5365 145.552 39.0748 145.401 39.6901 145.401C40.1693 145.401 40.6012 145.489 40.9858 145.667C41.3703 145.844 41.6854 146.093 41.9309 146.412C42.1764 146.732 42.3287 147.105 42.3879 147.531H41.3407C41.2609 147.22 41.0834 146.945 40.8083 146.705C40.5361 146.463 40.1693 146.341 39.7079 146.341C39.2997 146.341 38.9417 146.448 38.6341 146.661C38.3294 146.871 38.0913 147.168 37.9197 147.553C37.7511 147.934 37.6668 148.382 37.6668 148.897C37.6668 149.424 37.7496 149.882 37.9153 150.273C38.0839 150.663 38.3205 150.966 38.6252 151.182C38.9329 151.398 39.2937 151.506 39.7079 151.506C39.98 151.506 40.227 151.459 40.4489 151.364C40.6707 151.27 40.8586 151.134 41.0124 150.956C41.1662 150.779 41.2757 150.566 41.3407 150.317H42.3879C42.3287 150.719 42.1823 151.082 41.9486 151.404C41.7179 151.724 41.4117 151.978 41.0301 152.167C40.6515 152.354 40.2108 152.447 39.7079 152.447ZM43.9187 152.305V145.489H44.9659V152.305H43.9187ZM44.4512 144.354C44.2471 144.354 44.0711 144.284 43.9232 144.145C43.7782 144.006 43.7057 143.839 43.7057 143.644C43.7057 143.448 43.7782 143.281 43.9232 143.142C44.0711 143.003 44.2471 142.934 44.4512 142.934C44.6553 142.934 44.8298 143.003 44.9748 143.142C45.1227 143.281 45.1966 143.448 45.1966 143.644C45.1966 143.839 45.1227 144.006 44.9748 144.145C44.8298 144.284 44.6553 144.354 44.4512 144.354ZM46.8838 154.861V145.489H47.8955V146.572H48.0198C48.0967 146.454 48.2032 146.303 48.3392 146.12C48.4783 145.933 48.6765 145.768 48.9338 145.623C49.1941 145.475 49.5461 145.401 49.9898 145.401C50.5637 145.401 51.0696 145.544 51.5074 145.831C51.9451 146.118 52.2868 146.525 52.5323 147.051C52.7779 147.578 52.9006 148.199 52.9006 148.915C52.9006 149.637 52.7779 150.262 52.5323 150.792C52.2868 151.318 51.9466 151.727 51.5118 152.017C51.0769 152.303 50.5756 152.447 50.0076 152.447C49.5698 152.447 49.2193 152.374 48.956 152.23C48.6927 152.082 48.4901 151.914 48.3481 151.728C48.2061 151.539 48.0967 151.382 48.0198 151.258H47.931V154.861H46.8838ZM47.9133 148.897C47.9133 149.412 47.9887 149.866 48.1396 150.259C48.2904 150.65 48.5108 150.956 48.8007 151.178C49.0906 151.397 49.4456 151.506 49.8656 151.506C50.3034 151.506 50.6687 151.391 50.9616 151.16C51.2574 150.926 51.4792 150.613 51.6272 150.219C51.778 149.823 51.8534 149.382 51.8534 148.897C51.8534 148.418 51.7795 147.986 51.6316 147.602C51.4866 147.214 51.2663 146.908 50.9705 146.683C50.6776 146.455 50.3093 146.341 49.8656 146.341C49.4396 146.341 49.0817 146.449 48.7918 146.665C48.5019 146.878 48.283 147.177 48.1351 147.562C47.9872 147.943 47.9133 148.388 47.9133 148.897ZM56.5036 152.465C56.0717 152.465 55.6797 152.383 55.3277 152.221C54.9757 152.055 54.6962 151.817 54.4891 151.506C54.282 151.193 54.1785 150.814 54.1785 150.37C54.1785 149.98 54.2554 149.663 54.4092 149.421C54.5631 149.175 54.7687 148.983 55.026 148.844C55.2834 148.705 55.5673 148.601 55.8779 148.533C56.1915 148.462 56.5065 148.406 56.8231 148.365C57.2372 148.312 57.5729 148.272 57.8303 148.245C58.0906 148.215 58.2799 148.167 58.3982 148.099C58.5195 148.03 58.5802 147.912 58.5802 147.744V147.708C58.5802 147.27 58.4604 146.93 58.2208 146.688C57.9841 146.445 57.6247 146.324 57.1425 146.324C56.6426 146.324 56.2507 146.433 55.9667 146.652C55.6827 146.871 55.483 147.105 55.3677 147.353L54.3737 146.998C54.5512 146.584 54.7879 146.262 55.0837 146.031C55.3825 145.797 55.7079 145.634 56.0599 145.543C56.4148 145.448 56.7639 145.401 57.107 145.401C57.3259 145.401 57.5774 145.427 57.8613 145.481C58.1483 145.531 58.4249 145.636 58.6911 145.796C58.9603 145.955 59.1836 146.196 59.3611 146.519C59.5386 146.841 59.6273 147.273 59.6273 147.815V152.305H58.5802V151.382H58.5269C58.4559 151.53 58.3376 151.688 58.1719 151.857C58.0063 152.025 57.7859 152.169 57.5108 152.287C57.2357 152.406 56.9 152.465 56.5036 152.465ZM56.6633 151.524C57.0774 151.524 57.4265 151.443 57.7105 151.28C57.9974 151.117 58.2134 150.907 58.3583 150.65C58.5062 150.393 58.5802 150.122 58.5802 149.838V148.879C58.5358 148.933 58.4382 148.982 58.2873 149.026C58.1394 149.067 57.9678 149.104 57.7726 149.137C57.5803 149.166 57.3925 149.193 57.2091 149.217C57.0286 149.237 56.8822 149.255 56.7698 149.27C56.4977 149.305 56.2433 149.363 56.0066 149.443C55.7729 149.52 55.5836 149.637 55.4387 149.794C55.2967 149.947 55.2257 150.157 55.2257 150.424C55.2257 150.787 55.3603 151.063 55.6295 151.249C55.9016 151.432 56.2462 151.524 56.6633 151.524ZM64.3074 152.447C63.6685 152.447 63.1183 152.296 62.6568 151.994C62.1953 151.693 61.8404 151.277 61.5919 150.747C61.3434 150.218 61.2192 149.613 61.2192 148.933C61.2192 148.241 61.3464 147.63 61.6007 147.1C61.8581 146.568 62.216 146.152 62.6745 145.853C63.136 145.552 63.6744 145.401 64.2897 145.401C64.7689 145.401 65.2008 145.489 65.5853 145.667C65.9699 145.844 66.2849 146.093 66.5304 146.412C66.7759 146.732 66.9283 147.105 66.9874 147.531H65.9403C65.8604 147.22 65.6829 146.945 65.4078 146.705C65.1357 146.463 64.7689 146.341 64.3074 146.341C63.8992 146.341 63.5413 146.448 63.2336 146.661C62.9289 146.871 62.6908 147.168 62.5192 147.553C62.3506 147.934 62.2663 148.382 62.2663 148.897C62.2663 149.424 62.3491 149.882 62.5148 150.273C62.6834 150.663 62.9201 150.966 63.2247 151.182C63.5324 151.398 63.8933 151.506 64.3074 151.506C64.5796 151.506 64.8266 151.459 65.0484 151.364C65.2703 151.27 65.4581 151.134 65.6119 150.956C65.7657 150.779 65.8752 150.566 65.9403 150.317H66.9874C66.9283 150.719 66.7819 151.082 66.5482 151.404C66.3174 151.724 66.0113 151.978 65.6297 152.167C65.251 152.354 64.8103 152.447 64.3074 152.447ZM68.5183 152.305V145.489H69.5654V152.305H68.5183ZM69.0507 144.354C68.8466 144.354 68.6706 144.284 68.5227 144.145C68.3777 144.006 68.3053 143.839 68.3053 143.644C68.3053 143.448 68.3777 143.281 68.5227 143.142C68.6706 143.003 68.8466 142.934 69.0507 142.934C69.2548 142.934 69.4294 143.003 69.5743 143.142C69.7222 143.281 69.7962 143.448 69.7962 143.644C69.7962 143.839 69.7222 144.006 69.5743 144.145C69.4294 144.284 69.2548 144.354 69.0507 144.354ZM74.2522 152.447C73.6369 152.447 73.097 152.3 72.6326 152.008C72.1711 151.715 71.8102 151.305 71.5499 150.779C71.2926 150.252 71.1639 149.637 71.1639 148.933C71.1639 148.223 71.2926 147.603 71.5499 147.074C71.8102 146.544 72.1711 146.133 72.6326 145.84C73.097 145.547 73.6369 145.401 74.2522 145.401C74.8674 145.401 75.4058 145.547 75.8673 145.84C76.3317 146.133 76.6926 146.544 76.9499 147.074C77.2103 147.603 77.3404 148.223 77.3404 148.933C77.3404 149.637 77.2103 150.252 76.9499 150.779C76.6926 151.305 76.3317 151.715 75.8673 152.008C75.4058 152.3 74.8674 152.447 74.2522 152.447ZM74.2522 151.506C74.7195 151.506 75.1041 151.386 75.4058 151.147C75.7075 150.907 75.9309 150.592 76.0758 150.202C76.2208 149.811 76.2932 149.388 76.2932 148.933C76.2932 148.477 76.2208 148.053 76.0758 147.659C75.9309 147.266 75.7075 146.948 75.4058 146.705C75.1041 146.463 74.7195 146.341 74.2522 146.341C73.7848 146.341 73.4002 146.463 73.0985 146.705C72.7968 146.948 72.5734 147.266 72.4285 147.659C72.2835 148.053 72.2111 148.477 72.2111 148.933C72.2111 149.388 72.2835 149.811 72.4285 150.202C72.5734 150.592 72.7968 150.907 73.0985 151.147C73.4002 151.386 73.7848 151.506 74.2522 151.506ZM79.9861 148.205V152.305H78.9389V145.489H79.9506V146.554H80.0393C80.199 146.208 80.4416 145.93 80.767 145.72C81.0924 145.507 81.5124 145.401 82.0271 145.401C82.4886 145.401 82.8924 145.495 83.2385 145.685C83.5846 145.871 83.8538 146.155 84.046 146.537C84.2383 146.915 84.3345 147.394 84.3345 147.974V152.305H83.2873V148.045C83.2873 147.51 83.1483 147.093 82.8702 146.794C82.5921 146.492 82.2105 146.341 81.7254 146.341C81.3912 146.341 81.0924 146.414 80.8291 146.559C80.5688 146.704 80.3632 146.915 80.2124 147.193C80.0615 147.471 79.9861 147.809 79.9861 148.205ZM89.1055 152.447C88.4488 152.447 87.8823 152.302 87.4061 152.012C86.9328 151.719 86.5675 151.311 86.3101 150.787C86.0557 150.261 85.9285 149.649 85.9285 148.95C85.9285 148.252 86.0557 147.637 86.3101 147.105C86.5675 146.569 86.9254 146.152 87.3839 145.853C87.8454 145.552 88.3837 145.401 88.999 145.401C89.354 145.401 89.7045 145.46 90.0506 145.578C90.3967 145.697 90.7117 145.889 90.9957 146.155C91.2797 146.418 91.506 146.767 91.6746 147.202C91.8432 147.637 91.9275 148.172 91.9275 148.808V149.252H86.6739V148.347H90.8626C90.8626 147.962 90.7857 147.619 90.6319 147.318C90.481 147.016 90.2651 146.778 89.9841 146.603C89.706 146.429 89.3776 146.341 88.999 146.341C88.5819 146.341 88.221 146.445 87.9163 146.652C87.6146 146.856 87.3824 147.122 87.2197 147.451C87.057 147.779 86.9757 148.131 86.9757 148.507V149.11C86.9757 149.625 87.0644 150.061 87.2419 150.419C87.4223 150.774 87.6723 151.045 87.9918 151.231C88.3113 151.415 88.6825 151.506 89.1055 151.506C89.3806 151.506 89.6291 151.468 89.8509 151.391C90.0758 151.311 90.2695 151.193 90.4322 151.036C90.5949 150.876 90.7206 150.678 90.8094 150.441L91.821 150.725C91.7145 151.068 91.5356 151.37 91.2841 151.63C91.0327 151.888 90.7221 152.089 90.3523 152.234C89.9826 152.376 89.567 152.447 89.1055 152.447ZM98.3481 147.016L97.4074 147.282C97.3482 147.125 97.261 146.973 97.1456 146.825C97.0332 146.674 96.8794 146.55 96.6841 146.452C96.4889 146.355 96.2389 146.306 95.9343 146.306C95.5172 146.306 95.1696 146.402 94.8915 146.594C94.6164 146.784 94.4789 147.025 94.4789 147.318C94.4789 147.578 94.5735 147.783 94.7629 147.934C94.9522 148.085 95.248 148.211 95.6503 148.312L96.662 148.56C97.2713 148.708 97.7254 148.934 98.0242 149.239C98.3229 149.541 98.4723 149.93 98.4723 150.406C98.4723 150.796 98.3599 151.145 98.1351 151.453C97.9132 151.761 97.6026 152.003 97.2033 152.181C96.8039 152.358 96.3395 152.447 95.81 152.447C95.1149 152.447 94.5395 152.296 94.084 151.994C93.6284 151.693 93.34 151.252 93.2187 150.672L94.2127 150.424C94.3073 150.79 94.4863 151.065 94.7495 151.249C95.0158 151.432 95.3634 151.524 95.7923 151.524C96.2804 151.524 96.6679 151.42 96.9548 151.213C97.2447 151.003 97.3896 150.752 97.3896 150.459C97.3896 150.222 97.3068 150.024 97.1412 149.865C96.9755 149.702 96.7211 149.581 96.378 149.501L95.2421 149.234C94.6179 149.087 94.1594 148.857 93.8666 148.547C93.5767 148.233 93.4317 147.841 93.4317 147.371C93.4317 146.986 93.5397 146.646 93.7556 146.35C93.9745 146.054 94.2718 145.822 94.6475 145.654C95.0261 145.485 95.4551 145.401 95.9343 145.401C96.6087 145.401 97.1382 145.549 97.5228 145.844C97.9103 146.14 98.1854 146.531 98.3481 147.016Z" fill="black"/>
<path d="M4.23356 56.5856V65.6729H3.13315V57.7392H3.07991L0.861333 59.2124V58.0942L3.13315 56.5856H4.23356Z" fill="black"/>
<path d="M101.894 56.4613C102.266 56.4643 102.639 56.5353 103.012 56.6743C103.385 56.8134 103.725 57.0441 104.032 57.3665C104.34 57.686 104.587 58.1223 104.773 58.6755C104.96 59.2286 105.053 59.9223 105.053 60.7565C105.053 61.5641 104.976 62.2814 104.822 62.9085C104.671 63.5327 104.453 64.0592 104.166 64.4881C103.882 64.9171 103.535 65.2424 103.127 65.4643C102.722 65.6862 102.264 65.7971 101.752 65.7971C101.243 65.7971 100.789 65.6965 100.39 65.4954C99.9932 65.2913 99.6678 65.0088 99.4134 64.6479C99.1619 64.284 99.0007 63.8625 98.9297 63.3833H100.012C100.11 63.8004 100.304 64.145 100.594 64.4171C100.887 64.6863 101.273 64.8209 101.752 64.8209C102.453 64.8209 103.006 64.5148 103.411 63.9024C103.819 63.2901 104.024 62.4249 104.024 61.3067H103.953C103.787 61.5552 103.59 61.7696 103.362 61.9501C103.135 62.1305 102.882 62.2696 102.604 62.3672C102.326 62.4648 102.03 62.5136 101.716 62.5136C101.196 62.5136 100.718 62.3849 100.283 62.1276C99.8512 61.8673 99.5051 61.5108 99.2448 61.0582C98.9874 60.6027 98.8587 60.082 98.8587 59.4963C98.8587 58.9402 98.983 58.4314 99.2315 57.97C99.4829 57.5055 99.8349 57.1358 100.288 56.8607C100.743 56.5856 101.278 56.4525 101.894 56.4613ZM101.894 57.4375C101.521 57.4375 101.185 57.5307 100.887 57.7171C100.591 57.9005 100.356 58.1489 100.181 58.4625C100.009 58.7731 99.9237 59.1177 99.9237 59.4963C99.9237 59.875 100.006 60.2196 100.172 60.5302C100.341 60.8378 100.57 61.0834 100.86 61.2668C101.153 61.4472 101.486 61.5374 101.858 61.5374C102.139 61.5374 102.401 61.4827 102.644 61.3733C102.886 61.2609 103.098 61.1085 103.278 60.9162C103.462 60.721 103.605 60.5006 103.709 60.2551C103.812 60.0066 103.864 59.7478 103.864 59.4786C103.864 59.1236 103.778 58.7908 103.606 58.4802C103.438 58.1696 103.204 57.9182 102.905 57.7259C102.61 57.5336 102.272 57.4375 101.894 57.4375Z" fill="black"/>
<path d="M416.413 146.057C416.316 145.759 416.187 145.491 416.027 145.254C415.871 145.015 415.683 144.811 415.464 144.642C415.248 144.473 415.002 144.345 414.727 144.256C414.452 144.167 414.151 144.123 413.822 144.123C413.284 144.123 412.794 144.262 412.354 144.54C411.913 144.818 411.562 145.228 411.302 145.769C411.042 146.31 410.911 146.974 410.911 147.761C410.911 148.548 411.043 149.212 411.306 149.754C411.57 150.295 411.926 150.705 412.376 150.983C412.825 151.261 413.331 151.4 413.893 151.4C414.414 151.4 414.872 151.289 415.269 151.067C415.668 150.842 415.979 150.526 416.201 150.117C416.425 149.706 416.538 149.223 416.538 148.666L416.875 148.737H414.142V147.761H417.603V148.737C417.603 149.486 417.443 150.137 417.123 150.69C416.807 151.243 416.369 151.672 415.81 151.977C415.254 152.278 414.615 152.429 413.893 152.429C413.089 152.429 412.382 152.24 411.772 151.861C411.166 151.483 410.693 150.944 410.352 150.246C410.015 149.548 409.847 148.72 409.847 147.761C409.847 147.042 409.943 146.396 410.135 145.822C410.33 145.245 410.605 144.754 410.96 144.349C411.315 143.944 411.735 143.633 412.22 143.417C412.706 143.201 413.239 143.093 413.822 143.093C414.301 143.093 414.748 143.166 415.162 143.311C415.579 143.453 415.951 143.655 416.276 143.919C416.604 144.179 416.878 144.491 417.097 144.855C417.316 145.216 417.467 145.617 417.549 146.057H416.413ZM422.203 152.447C421.546 152.447 420.98 152.302 420.503 152.012C420.03 151.719 419.665 151.311 419.407 150.787C419.153 150.261 419.026 149.649 419.026 148.95C419.026 148.252 419.153 147.637 419.407 147.105C419.665 146.569 420.023 146.152 420.481 145.853C420.943 145.552 421.481 145.401 422.096 145.401C422.451 145.401 422.802 145.46 423.148 145.578C423.494 145.697 423.809 145.889 424.093 146.155C424.377 146.418 424.603 146.767 424.772 147.202C424.941 147.637 425.025 148.172 425.025 148.808V149.252H419.771V148.347H423.96C423.96 147.962 423.883 147.619 423.729 147.318C423.578 147.016 423.362 146.778 423.081 146.603C422.803 146.429 422.475 146.341 422.096 146.341C421.679 146.341 421.318 146.445 421.014 146.652C420.712 146.856 420.48 147.122 420.317 147.451C420.154 147.779 420.073 148.131 420.073 148.507V149.11C420.073 149.625 420.162 150.061 420.339 150.419C420.52 150.774 420.77 151.045 421.089 151.231C421.409 151.415 421.78 151.506 422.203 151.506C422.478 151.506 422.726 151.468 422.948 151.391C423.173 151.311 423.367 151.193 423.53 151.036C423.692 150.876 423.818 150.678 423.907 150.441L424.918 150.725C424.812 151.068 424.633 151.37 424.381 151.63C424.13 151.888 423.819 152.089 423.45 152.234C423.08 152.376 422.664 152.447 422.203 152.447ZM421.564 144.567L422.647 142.508H423.871L422.487 144.567H421.564ZM427.665 148.205V152.305H426.618V145.489H427.629V146.554H427.718C427.878 146.208 428.121 145.93 428.446 145.72C428.771 145.507 429.191 145.401 429.706 145.401C430.168 145.401 430.571 145.495 430.917 145.685C431.264 145.871 431.533 146.155 431.725 146.537C431.917 146.915 432.013 147.394 432.013 147.974V152.305H430.966V148.045C430.966 147.51 430.827 147.093 430.549 146.794C430.271 146.492 429.889 146.341 429.404 146.341C429.07 146.341 428.771 146.414 428.508 146.559C428.248 146.704 428.042 146.915 427.891 147.193C427.74 147.471 427.665 147.809 427.665 148.205ZM436.784 152.447C436.128 152.447 435.561 152.302 435.085 152.012C434.612 151.719 434.246 151.311 433.989 150.787C433.735 150.261 433.607 149.649 433.607 148.95C433.607 148.252 433.735 147.637 433.989 147.105C434.246 146.569 434.604 146.152 435.063 145.853C435.524 145.552 436.063 145.401 436.678 145.401C437.033 145.401 437.383 145.46 437.73 145.578C438.076 145.697 438.391 145.889 438.675 146.155C438.959 146.418 439.185 146.767 439.354 147.202C439.522 147.637 439.606 148.172 439.606 148.808V149.252H434.353V148.347H438.542C438.542 147.962 438.465 147.619 438.311 147.318C438.16 147.016 437.944 146.778 437.663 146.603C437.385 146.429 437.057 146.341 436.678 146.341C436.261 146.341 435.9 146.445 435.595 146.652C435.294 146.856 435.061 147.122 434.899 147.451C434.736 147.779 434.655 148.131 434.655 148.507V149.11C434.655 149.625 434.743 150.061 434.921 150.419C435.101 150.774 435.351 151.045 435.671 151.231C435.99 151.415 436.361 151.506 436.784 151.506C437.06 151.506 437.308 151.468 437.53 151.391C437.755 151.311 437.948 151.193 438.111 151.036C438.274 150.876 438.4 150.678 438.488 150.441L439.5 150.725C439.393 151.068 439.214 151.37 438.963 151.63C438.712 151.888 438.401 152.089 438.031 152.234C437.661 152.376 437.246 152.447 436.784 152.447ZM441.199 152.305V145.489H442.211V146.519H442.282C442.406 146.182 442.631 145.908 442.956 145.698C443.282 145.488 443.649 145.383 444.057 145.383C444.134 145.383 444.23 145.384 444.345 145.387C444.461 145.39 444.548 145.395 444.607 145.401V146.466C444.572 146.457 444.49 146.443 444.363 146.426C444.239 146.405 444.107 146.395 443.968 146.395C443.637 146.395 443.341 146.464 443.081 146.603C442.823 146.739 442.619 146.929 442.468 147.171C442.32 147.411 442.247 147.684 442.247 147.992V152.305H441.199ZM448.41 152.447C447.794 152.447 447.255 152.3 446.79 152.008C446.329 151.715 445.968 151.305 445.708 150.779C445.45 150.252 445.321 149.637 445.321 148.933C445.321 148.223 445.45 147.603 445.708 147.074C445.968 146.544 446.329 146.133 446.79 145.84C447.255 145.547 447.794 145.401 448.41 145.401C449.025 145.401 449.563 145.547 450.025 145.84C450.489 146.133 450.85 146.544 451.108 147.074C451.368 147.603 451.498 148.223 451.498 148.933C451.498 149.637 451.368 150.252 451.108 150.779C450.85 151.305 450.489 151.715 450.025 152.008C449.563 152.3 449.025 152.447 448.41 152.447ZM448.41 151.506C448.877 151.506 449.262 151.386 449.563 151.147C449.865 150.907 450.088 150.592 450.233 150.202C450.378 149.811 450.451 149.388 450.451 148.933C450.451 148.477 450.378 148.053 450.233 147.659C450.088 147.266 449.865 146.948 449.563 146.705C449.262 146.463 448.877 146.341 448.41 146.341C447.942 146.341 447.558 146.463 447.256 146.705C446.954 146.948 446.731 147.266 446.586 147.659C446.441 148.053 446.369 148.477 446.369 148.933C446.369 149.388 446.441 149.811 446.586 150.202C446.731 150.592 446.954 150.907 447.256 151.147C447.558 151.386 447.942 151.506 448.41 151.506Z" fill="black"/>
<circle cx="403.27" cy="96.989" r="24.157" fill="#F7DDBA"/>
<circle cx="465.745" cy="96.989" r="24.157" fill="#E4D9F2"/>
<path d="M400.205 102.325V93.2377H405.654V94.2139H401.306V97.2844H405.246V98.2605H401.306V102.325H400.205Z" fill="black"/>
<path d="M461.847 93.2377H463.161L466.249 100.781H466.356L469.444 93.2377H470.757V102.325H469.728V95.4208H469.639L466.799 102.325H465.805L462.966 95.4208H462.877V102.325H461.847V93.2377Z" fill="black"/>
<rect x="2" y="74" width="2" height="47" fill="#4E4D4D"/>
<rect x="92" y="74" width="18" height="47" fill="#4E4D4D"/>
<rect x="39" y="74" width="9" height="47" fill="#4E4D4D"/>
<rect x="19" y="74" width="5" height="47" fill="#4E4D4D"/>
<rect x="63" y="74" width="13.5" height="47" fill="#4E4D4D"/>
</svg>
